<svg version="1.1" viewBox="0.0 0.0 482.0 334.0" fill="none" stroke="none" stroke-linecap="square" stroke-miterlimit="10" width="482" height="334" xmlns:xlink="http://www.w3.org/1999/xlink" xmlns="http://www.w3.org/2000/svg"><path fill="#ffffff" d="M0 0L482.0 0L482.0 334.0L0 334.0L0 0Z" fill-rule="nonzero"/><path stroke="#333333" stroke-width="1.0" stroke-linecap="butt" d="M43.5 265.5L465.5 265.5" fill-rule="nonzero"/><path stroke="#cccccc" stroke-width="1.0" stroke-linecap="butt" d="M43.5 219.5L465.5 219.5" fill-rule="nonzero"/><path stroke="#cccccc" stroke-width="1.0" stroke-linecap="butt" d="M43.5 174.5L465.5 174.5" fill-rule="nonzero"/><path stroke="#cccccc" stroke-width="1.0" stroke-linecap="butt" d="M43.5 129.5L465.5 129.5" fill-rule="nonzero"/><path stroke="#cccccc" stroke-width="1.0" stroke-linecap="butt" d="M43.5 83.5L465.5 83.5" fill-rule="nonzero"/><clipPath id="id_0"><path d="M43.7 83.96667L465.3 83.96667L465.3 265.3L43.7 265.3L43.7 83.96667Z" clip-rule="nonzero"/></clipPath><path stroke="#000000" stroke-width="2.0" stroke-linecap="butt" stroke-opacity="0.0" clip-path="url(#id_0)" d="M164.0 265.0L108.0 265.0L108.0 214.0C108.0 212.89543 108.89543 212.0 110.0 212.0L162.0 212.0C163.10457 212.0 164.0 212.89543 164.0 214.0Z" fill-rule="nonzero"/><path fill="#4285f4" clip-path="url(#id_0)" d="M164.0 265.0L108.0 265.0L108.0 214.0C108.0 212.89543 108.89543 212.0 110.0 212.0L162.0 212.0C163.10457 212.0 164.0 212.89543 164.0 214.0Z" fill-rule="nonzero"/><path stroke="#000000" stroke-width="2.0" stroke-linecap="butt" stroke-opacity="0.0" clip-path="url(#id_0)" d="M343.0 265.0L287.0 265.0L287.0 137.0C287.0 135.89543 287.89542 135.0 289.0 135.0L341.0 135.0C342.10458 135.0 343.0 135.89543 343.0 137.0Z" fill-rule="nonzero"/><path fill="#4285f4" clip-path="url(#id_0)" d="M343.0 265.0L287.0 265.0L287.0 137.0C287.0 135.89543 287.89542 135.0 289.0 135.0L341.0 135.0C342.10458 135.0 343.0 135.89543 343.0 137.0Z" fill-rule="nonzero"/><path stroke="#000000" stroke-width="2.0" stroke-linecap="butt" stroke-opacity="0.0" clip-path="url(#id_0)" d="M222.0 265.0L166.0 265.0L166.0 200.0C166.0 198.89543 166.89543 198.0 168.0 198.0L220.0 198.0C221.10457 198.0 222.0 198.89543 222.0 200.0Z" fill-rule="nonzero"/><path fill="#ea4335" clip-path="url(#id_0)" d="M222.0 265.0L166.0 265.0L166.0 200.0C166.0 198.89543 166.89543 198.0 168.0 198.0L220.0 198.0C221.10457 198.0 222.0 198.89543 222.0 200.0Z" fill-rule="nonzero"/><path stroke="#000000" stroke-width="2.0" stroke-linecap="butt" stroke-opacity="0.0" clip-path="url(#id_0)" d="M401.0 265.0L345.0 265.0L345.0 95.0C345.0 93.89543 345.89542 93.0 347.0 93.0L399.0 93.0C400.10458 93.0 401.0 93.89543 401.0 95.0Z" fill-rule="nonzero"/><path fill="#ea4335" clip-path="url(#id_0)" d="M401.0 265.0L345.0 265.0L345.0 95.0C345.0 93.89543 345.89542 93.0 347.0 93.0L399.0 93.0C400.10458 93.0 401.0 93.89543 401.0 95.0Z" fill-rule="nonzero"/><path fill="#000000" d="M232.42188 314.3L232.42188 305.70624L235.67188 305.70624Q236.51562 305.70624 236.96875 305.78436Q237.60938 305.89374 238.03125 306.1906Q238.46875 306.4875 238.71875 307.01874Q238.98438 307.55 238.98438 308.1906Q238.98438 309.28436 238.28125 310.05Q237.59375 310.8 235.76562 310.8L233.5625 310.8L233.5625 314.3L232.42188 314.3ZM233.5625 309.8L235.78125 309.8Q236.89062 309.8 237.34375 309.39374Q237.8125 308.97186 237.8125 308.22186Q237.8125 307.6906 237.53125 307.3156Q237.26562 306.925 236.82812 306.8Q236.53125 306.72186 235.76562 306.72186L233.5625 306.72186L233.5625 309.8ZM240.26562 314.3L240.26562 305.70624L241.32812 305.70624L241.32812 314.3L240.26562 314.3ZM247.35938 313.53436Q246.76562 314.03436 246.21875 314.2375Q245.6875 314.4406 245.0625 314.4406Q244.03125 314.4406 243.48438 313.9406Q242.9375 313.4406 242.9375 312.65936Q242.9375 312.20624 243.14062 311.83124Q243.34375 311.4406 243.6875 311.22186Q244.03125 310.9875 244.45312 310.8781Q244.75 310.78436 245.39062 310.70624Q246.65625 310.5656 247.26562 310.34686Q247.26562 310.1281 247.26562 310.08124Q247.26562 309.425 246.96875 309.15936Q246.5625 308.8156 245.76562 308.8156Q245.03125 308.8156 244.67188 309.08124Q244.3125 309.33124 244.14062 309.9875L243.10938 309.84686Q243.25 309.1906 243.57812 308.78436Q243.90625 308.3781 244.51562 308.15936Q245.125 307.9406 245.92188 307.9406Q246.71875 307.9406 247.21875 308.1281Q247.71875 308.3156 247.95312 308.59686Q248.1875 308.8781 248.28125 309.3156Q248.32812 309.58124 248.32812 310.28436L248.32812 311.6906Q248.32812 313.15936 248.39062 313.55Q248.46875 313.9406 248.67188 314.3L247.5625 314.3Q247.40625 313.97186 247.35938 313.53436ZM247.26562 311.175Q246.6875 311.40936 245.54688 311.58124Q244.89062 311.675 244.625 311.8Q244.35938 311.90936 244.20312 312.1281Q244.0625 312.34686 244.0625 312.6281Q244.0625 313.05 244.375 313.33124Q244.70312 313.6125 245.3125 313.6125Q245.92188 313.6125 246.39062 313.34686Q246.875 313.08124 247.09375 312.6125Q247.26562 312.2531 247.26562 311.5656L247.26562 311.175ZM252.59375 313.3625L252.75 314.28436Q252.29688 314.3781 251.95312 314.3781Q251.375 314.3781 251.0625 314.20624Q250.75 314.01874 250.60938 313.72186Q250.48438 313.425 250.48438 312.47186L250.48438 308.89374L249.71875 308.89374L249.71875 308.08124L250.48438 308.08124L250.48438 306.53436L251.53125 305.90936L251.53125 308.08124L252.59375 308.08124L252.59375 308.89374L251.53125 308.89374L251.53125 312.53436Q251.53125 312.9875 251.57812 313.1125Q251.64062 313.2375 251.76562 313.3156Q251.89062 313.39374 252.125 313.39374Q252.3125 313.39374 252.59375 313.3625ZM253.54688 314.3L253.54688 308.89374L252.60938 308.89374L252.60938 308.08124L253.54688 308.08124L253.54688 307.40936Q253.54688 306.78436 253.65625 306.4875Q253.8125 306.0656 254.1875 305.8156Q254.57812 305.5656 255.26562 305.5656Q255.71875 305.5656 256.25 305.675L256.09375 306.58124Q255.76562 306.53436 255.46875 306.53436Q254.98438 306.53436 254.78125 306.7375Q254.59375 306.9406 254.59375 307.5031L254.59375 308.08124L255.8125 308.08124L255.8125 308.89374L254.59375 308.89374L254.59375 314.3L253.54688 314.3ZM255.90625 311.1906Q255.90625 309.45624 256.85938 308.6281Q257.65625 307.9406 258.8125 307.9406Q260.09375 307.9406 260.90625 308.78436Q261.73438 309.6125 261.73438 311.09686Q261.73438 312.3 261.375 312.9875Q261.01562 313.675 260.3125 314.0656Q259.625 314.4406 258.8125 314.4406Q257.51562 314.4406 256.70312 313.6125Q255.90625 312.76874 255.90625 311.1906ZM256.98438 311.1906Q256.98438 312.3781 257.5 312.97186Q258.03125 313.5656 258.8125 313.5656Q259.60938 313.5656 260.125 312.97186Q260.64062 312.3781 260.64062 311.15936Q260.64062 310.0031 260.10938 309.40936Q259.59375 308.8156 258.8125 308.8156Q258.03125 308.8156 257.5 309.40936Q256.98438 309.9875 256.98438 311.1906ZM263.28125 314.3L263.28125 308.08124L264.23438 308.08124L264.23438 309.01874Q264.59375 308.3625 264.89062 308.15936Q265.20312 307.9406 265.57812 307.9406Q266.10938 307.9406 266.65625 308.26874L266.29688 309.2531Q265.90625 309.01874 265.53125 309.01874Q265.17188 309.01874 264.89062 309.2375Q264.625 309.4406 264.51562 309.8156Q264.32812 310.3781 264.32812 311.03436L264.32812 314.3L263.28125 314.3ZM267.29688 314.3L267.29688 308.08124L268.23438 308.08124L268.23438 308.95624Q268.53125 308.4875 269.01562 308.22186Q269.5 307.9406 270.125 307.9406Q270.8125 307.9406 271.25 308.22186Q271.70312 308.5031 271.875 309.01874Q272.625 307.9406 273.79688 307.9406Q274.73438 307.9406 275.21875 308.45624Q275.71875 308.95624 275.71875 310.03436L275.71875 314.3L274.67188 314.3L274.67188 310.3781Q274.67188 309.7531 274.5625 309.47186Q274.46875 309.1906 274.20312 309.01874Q273.9375 308.84686 273.5625 308.84686Q272.90625 308.84686 272.46875 309.28436Q272.04688 309.72186 272.04688 310.6906L272.04688 314.3L270.98438 314.3L270.98438 310.2531Q270.98438 309.55 270.71875 309.20624Q270.46875 308.84686 269.89062 308.84686Q269.4375 308.84686 269.0625 309.08124Q268.6875 309.3156 268.51562 309.76874Q268.34375 310.22186 268.34375 311.0656L268.34375 314.3L267.29688 314.3Z" fill-rule="nonzero"/><path fill="#000000" d="M31.2 265.0656Q31.2 263.53436 31.5125 262.6125Q31.825 261.675 32.434376 261.175Q33.059376 260.675 33.996876 260.675Q34.684376 260.675 35.2 260.95624Q35.73125 261.2375 36.075 261.76874Q36.41875 262.28436 36.60625 263.03436Q36.79375 263.78436 36.79375 265.0656Q36.79375 266.58124 36.48125 267.5031Q36.184376 268.425 35.559376 268.9406Q34.95 269.4406 33.996876 269.4406Q32.7625 269.4406 32.04375 268.55Q31.2 267.4875 31.2 265.0656ZM32.278126 265.0656Q32.278126 267.175 32.778126 267.8781Q33.278126 268.58124 33.996876 268.58124Q34.73125 268.58124 35.215626 267.8781Q35.715626 267.175 35.715626 265.0656Q35.715626 262.9406 35.215626 262.2531Q34.73125 261.55 33.98125 261.55Q33.2625 261.55 32.825 262.15936Q32.278126 262.9406 32.278126 265.0656Z" fill-rule="nonzero"/><path fill="#000000" d="M22.746876 222.95103L22.746876 223.96666L17.059376 223.96666Q17.059376 223.59166 17.184376 223.23228Q17.403126 222.65416 17.871876 222.09166Q18.35625 221.52916 19.2625 220.79478Q20.66875 219.63853 21.153126 218.96666Q21.653126 218.29478 21.653126 217.70103Q21.653126 217.07603 21.2 216.65416Q20.746876 216.21666 20.028126 216.21666Q19.2625 216.21666 18.809376 216.66978Q18.35625 217.12291 18.340626 217.93541L17.2625 217.82603Q17.371876 216.60728 18.090626 215.98228Q18.825 215.34166 20.059376 215.34166Q21.29375 215.34166 22.0125 216.02916Q22.73125 216.71666 22.73125 217.73228Q22.73125 218.24791 22.5125 218.74791Q22.309376 219.23228 21.809376 219.79478Q21.325 220.34166 20.2 221.29478Q19.246876 222.09166 18.965626 222.38853Q18.7 222.66978 18.528126 222.95103L22.746876 222.95103ZM24.2 219.73228Q24.2 218.20103 24.5125 217.27916Q24.825 216.34166 25.434376 215.84166Q26.059376 215.34166 26.996876 215.34166Q27.684376 215.34166 28.2 215.62291Q28.73125 215.90416 29.075 216.43541Q29.41875 216.95103 29.60625 217.70103Q29.79375 218.45103 29.79375 219.73228Q29.79375 221.24791 29.48125 222.16978Q29.184376 223.09166 28.559376 223.60728Q27.95 224.10728 26.996876 224.10728Q25.7625 224.10728 25.04375 223.21666Q24.2 222.15416 24.2 219.73228ZM25.278126 219.73228Q25.278126 221.84166 25.778126 222.54478Q26.278126 223.24791 26.996876 223.24791Q27.73125 223.24791 28.215626 222.54478Q28.715626 221.84166 28.715626 219.73228Q28.715626 217.60728 28.215626 216.91978Q27.73125 216.21666 26.98125 216.21666Q26.2625 216.21666 25.825 216.82603Q25.278126 217.60728 25.278126 219.73228ZM31.2 219.73228Q31.2 218.20103 31.5125 217.27916Q31.825 216.34166 32.434376 215.84166Q33.059376 215.34166 33.996876 215.34166Q34.684376 215.34166 35.2 215.62291Q35.73125 215.90416 36.075 216.43541Q36.41875 216.95103 36.60625 217.70103Q36.79375 218.45103 36.79375 219.73228Q36.79375 221.24791 36.48125 222.16978Q36.184376 223.09166 35.559376 223.60728Q34.95 224.10728 33.996876 224.10728Q32.7625 224.10728 32.04375 223.21666Q31.2 222.15416 31.2 219.73228ZM32.278126 219.73228Q32.278126 221.84166 32.778126 222.54478Q33.278126 223.24791 33.996876 223.24791Q34.73125 223.24791 35.215626 222.54478Q35.715626 221.84166 35.715626 219.73228Q35.715626 217.60728 35.215626 216.91978Q34.73125 216.21666 33.98125 216.21666Q33.2625 216.21666 32.825 216.82603Q32.278126 217.60728 32.278126 219.73228Z" fill-rule="nonzero"/><path fill="#000000" d="M20.575 178.63333L20.575 176.57083L16.85625 176.57083L16.85625 175.60208L20.778126 170.03958L21.6375 170.03958L21.6375 175.60208L22.79375 175.60208L22.79375 176.57083L21.6375 176.57083L21.6375 178.63333L20.575 178.63333ZM20.575 175.60208L20.575 171.7427L17.8875 175.60208L20.575 175.60208ZM24.2 174.39896Q24.2 172.8677 24.5125 171.94583Q24.825 171.00833 25.434376 170.50833Q26.059376 170.00833 26.996876 170.00833Q27.684376 170.00833 28.2 170.28958Q28.73125 170.57083 29.075 171.10208Q29.41875 171.6177 29.60625 172.3677Q29.79375 173.1177 29.79375 174.39896Q29.79375 175.91458 29.48125 176.83646Q29.184376 177.75833 28.559376 178.27396Q27.95 178.77396 26.996876 178.77396Q25.7625 178.77396 25.04375 177.88333Q24.2 176.82083 24.2 174.39896ZM25.278126 174.39896Q25.278126 176.50833 25.778126 177.21146Q26.278126 177.91458 26.996876 177.91458Q27.73125 177.91458 28.215626 177.21146Q28.715626 176.50833 28.715626 174.39896Q28.715626 172.27396 28.215626 171.58646Q27.73125 170.88333 26.98125 170.88333Q26.2625 170.88333 25.825 171.4927Q25.278126 172.27396 25.278126 174.39896ZM31.2 174.39896Q31.2 172.8677 31.5125 171.94583Q31.825 171.00833 32.434376 170.50833Q33.059376 170.00833 33.996876 170.00833Q34.684376 170.00833 35.2 170.28958Q35.73125 170.57083 36.075 171.10208Q36.41875 171.6177 36.60625 172.3677Q36.79375 173.1177 36.79375 174.39896Q36.79375 175.91458 36.48125 176.83646Q36.184376 177.75833 35.559376 178.27396Q34.95 178.77396 33.996876 178.77396Q32.7625 178.77396 32.04375 177.88333Q31.2 176.82083 31.2 174.39896ZM32.278126 174.39896Q32.278126 176.50833 32.778126 177.21146Q33.278126 177.91458 33.996876 177.91458Q34.73125 177.91458 35.215626 177.21146Q35.715626 176.50833 35.715626 174.39896Q35.715626 172.27396 35.215626 171.58646Q34.73125 170.88333 33.98125 170.88333Q33.2625 170.88333 32.825 171.4927Q32.278126 172.27396 32.278126 174.39896Z" fill-rule="nonzero"/><path fill="#000000" d="M22.66875 126.81563L21.621876 126.89375Q21.48125 126.26875 21.23125 125.9875Q20.79375 125.53438 20.16875 125.53438Q19.66875 125.53438 19.278126 125.81563Q18.79375 126.19063 18.496876 126.89375Q18.215626 127.58125 18.2 128.8625Q18.575 128.28438 19.121876 128.00313Q19.684376 127.72188 20.29375 127.72188Q21.340626 127.72188 22.075 128.50313Q22.825 129.28438 22.825 130.50313Q22.825 131.31563 22.465626 132.01875Q22.121876 132.70625 21.5125 133.08125Q20.903126 133.44063 20.1375 133.44063Q18.809376 133.44063 17.98125 132.47188Q17.153126 131.50313 17.153126 129.28438Q17.153126 126.78438 18.075 125.65938Q18.871876 124.675 20.23125 124.675Q21.246876 124.675 21.8875 125.25313Q22.54375 125.81563 22.66875 126.81563ZM18.371876 130.51875Q18.371876 131.06563 18.590626 131.56563Q18.825 132.05 19.23125 132.31563Q19.653126 132.58125 20.121876 132.58125Q20.778126 132.58125 21.2625 132.05Q21.746876 131.50313 21.746876 130.58125Q21.746876 129.69063 21.2625 129.175Q20.79375 128.65938 20.075 128.65938Q19.35625 128.65938 18.85625 129.175Q18.371876 129.69063 18.371876 130.51875ZM24.2 129.06563Q24.2 127.53438 24.5125 126.6125Q24.825 125.675 25.434376 125.175Q26.059376 124.675 26.996876 124.675Q27.684376 124.675 28.2 124.95625Q28.73125 125.2375 29.075 125.76875Q29.41875 126.28438 29.60625 127.03438Q29.79375 127.78438 29.79375 129.06563Q29.79375 130.58125 29.48125 131.50313Q29.184376 132.425 28.559376 132.94063Q27.95 133.44063 26.996876 133.44063Q25.7625 133.44063 25.04375 132.55Q24.2 131.4875 24.2 129.06563ZM25.278126 129.06563Q25.278126 131.175 25.778126 131.87813Q26.278126 132.58125 26.996876 132.58125Q27.73125 132.58125 28.215626 131.87813Q28.715626 131.175 28.715626 129.06563Q28.715626 126.94063 28.215626 126.25313Q27.73125 125.55 26.98125 125.55Q26.2625 125.55 25.825 126.15938Q25.278126 126.94063 25.278126 129.06563ZM31.2 129.06563Q31.2 127.53438 31.5125 126.6125Q31.825 125.675 32.434376 125.175Q33.059376 124.675 33.996876 124.675Q34.684376 124.675 35.2 124.95625Q35.73125 125.2375 36.075 125.76875Q36.41875 126.28438 36.60625 127.03438Q36.79375 127.78438 36.79375 129.06563Q36.79375 130.58125 36.48125 131.50313Q36.184376 132.425 35.559376 132.94063Q34.95 133.44063 33.996876 133.44063Q32.7625 133.44063 32.04375 132.55Q31.2 131.4875 31.2 129.06563ZM32.278126 129.06563Q32.278126 131.175 32.778126 131.87813Q33.278126 132.58125 33.996876 132.58125Q34.73125 132.58125 35.215626 131.87813Q35.715626 131.175 35.715626 129.06563Q35.715626 126.94063 35.215626 126.25313Q34.73125 125.55 33.98125 125.55Q33.2625 125.55 32.825 126.15938Q32.278126 126.94063 32.278126 129.06563Z" fill-rule="nonzero"/><path fill="#000000" d="M18.825 83.31042Q18.16875 83.06042 17.840626 82.62292Q17.528126 82.16979 17.528126 81.56042Q17.528126 80.62292 18.2 79.98229Q18.8875 79.34167 19.996876 79.34167Q21.121876 79.34167 21.809376 79.99792Q22.496876 80.65417 22.496876 81.59167Q22.496876 82.18542 22.184376 82.62292Q21.871876 83.06042 21.23125 83.31042Q22.028126 83.56042 22.434376 84.13854Q22.840626 84.71667 22.840626 85.51354Q22.840626 86.60729 22.059376 87.35729Q21.29375 88.10729 20.0125 88.10729Q18.746876 88.10729 17.965626 87.35729Q17.184376 86.60729 17.184376 85.48229Q17.184376 84.63854 17.60625 84.07604Q18.04375 83.51354 18.825 83.31042ZM18.60625 81.51354Q18.60625 82.12292 18.996876 82.51354Q19.403126 82.90417 20.028126 82.90417Q20.6375 82.90417 21.028126 82.52917Q21.41875 82.13854 21.41875 81.57604Q21.41875 80.99792 21.0125 80.60729Q20.60625 80.20104 20.0125 80.20104Q19.403126 80.20104 18.996876 80.59167Q18.60625 80.98229 18.60625 81.51354ZM18.278126 85.48229Q18.278126 85.93542 18.48125 86.35729Q18.7 86.77917 19.121876 87.01354Q19.54375 87.24792 20.028126 87.24792Q20.778126 87.24792 21.2625 86.76354Q21.7625 86.27917 21.7625 85.52917Q21.7625 84.76354 21.2625 84.26354Q20.7625 83.76354 19.996876 83.76354Q19.246876 83.76354 18.7625 84.26354Q18.278126 84.74792 18.278126 85.48229ZM24.2 83.73229Q24.2 82.20104 24.5125 81.27917Q24.825 80.34167 25.434376 79.84167Q26.059376 79.34167 26.996876 79.34167Q27.684376 79.34167 28.2 79.62292Q28.73125 79.90417 29.075 80.43542Q29.41875 80.95104 29.60625 81.70104Q29.79375 82.45104 29.79375 83.73229Q29.79375 85.24792 29.48125 86.16979Q29.184376 87.09167 28.559376 87.60729Q27.95 88.10729 26.996876 88.10729Q25.7625 88.10729 25.04375 87.21667Q24.2 86.15417 24.2 83.73229ZM25.278126 83.73229Q25.278126 85.84167 25.778126 86.54479Q26.278126 87.24792 26.996876 87.24792Q27.73125 87.24792 28.215626 86.54479Q28.715626 85.84167 28.715626 83.73229Q28.715626 81.60729 28.215626 80.91979Q27.73125 80.21667 26.98125 80.21667Q26.2625 80.21667 25.825 80.82604Q25.278126 81.60729 25.278126 83.73229ZM31.2 83.73229Q31.2 82.20104 31.5125 81.27917Q31.825 80.34167 32.434376 79.84167Q33.059376 79.34167 33.996876 79.34167Q34.684376 79.34167 35.2 79.62292Q35.73125 79.90417 36.075 80.43542Q36.41875 80.95104 36.60625 81.70104Q36.79375 82.45104 36.79375 83.73229Q36.79375 85.24792 36.48125 86.16979Q36.184376 87.09167 35.559376 87.60729Q34.95 88.10729 33.996876 88.10729Q32.7625 88.10729 32.04375 87.21667Q31.2 86.15417 31.2 83.73229ZM32.278126 83.73229Q32.278126 85.84167 32.778126 86.54479Q33.278126 87.24792 33.996876 87.24792Q34.73125 87.24792 35.215626 86.54479Q35.715626 85.84167 35.715626 83.73229Q35.715626 81.60729 35.215626 80.91979Q34.73125 80.21667 33.98125 80.21667Q33.2625 80.21667 32.825 80.82604Q32.278126 81.60729 32.278126 83.73229Z" fill-rule="nonzero"/><path fill="#000000" d="M107.6885 282.3L107.6885 273.70624L109.40725 273.70624L111.4385 279.78436Q111.71975 280.64374 111.84475 281.0656Q111.985374 280.59686 112.297874 279.6906L114.360374 273.70624L115.891624 273.70624L115.891624 282.3L114.797874 282.3L114.797874 275.1125L112.297874 282.3L111.266624 282.3L108.78225 274.9875L108.78225 282.3L107.6885 282.3ZM116.672874 282.3L116.672874 273.70624L119.90725 273.70624Q120.891624 273.70624 121.485374 273.97186Q122.079124 274.2375 122.40725 274.78436Q122.751 275.3156 122.751 275.90936Q122.751 276.45624 122.454124 276.9406Q122.15725 277.425 121.547874 277.72186Q122.329124 277.95624 122.735374 278.51874Q123.15725 279.0656 123.15725 279.8156Q123.15725 280.40936 122.90725 280.9406Q122.65725 281.45624 122.28225 281.7375Q121.90725 282.01874 121.329124 282.15936Q120.766624 282.3 119.954124 282.3L116.672874 282.3ZM117.8135 277.3156L119.672874 277.3156Q120.422874 277.3156 120.751 277.22186Q121.1885 277.09686 121.40725 276.8Q121.626 276.4875 121.626 276.03436Q121.626 275.6125 121.422874 275.28436Q121.21975 274.95624 120.829124 274.84686Q120.454124 274.72186 119.53225 274.72186L117.8135 274.72186L117.8135 277.3156ZM117.8135 281.28436L119.954124 281.28436Q120.501 281.28436 120.71975 281.2375Q121.126 281.175 121.376 281.01874Q121.641624 280.84686 121.8135 280.53436Q121.985374 280.22186 121.985374 279.8156Q121.985374 279.33124 121.735374 278.97186Q121.501 278.6125 121.0635 278.47186Q120.626 278.33124 119.797874 278.33124L117.8135 278.33124L117.8135 281.28436ZM127.71975 282.3L127.71975 273.70624L130.96976 273.70624Q131.8135 273.70624 132.26663 273.78436Q132.90726 273.89374 133.32913 274.1906Q133.76663 274.4875 134.01663 275.01874Q134.28226 275.55 134.28226 276.1906Q134.28226 277.28436 133.57913 278.05Q132.89163 278.8 131.0635 278.8L128.86038 278.8L128.86038 282.3L127.71975 282.3ZM128.86038 277.8L131.07913 277.8Q132.1885 277.8 132.64163 277.39374Q133.11038 276.97186 133.11038 276.22186Q133.11038 275.6906 132.82913 275.3156Q132.5635 274.925 132.126 274.8Q131.82913 274.72186 131.0635 274.72186L128.86038 274.72186L128.86038 277.8ZM135.57913 282.3L135.57913 276.08124L136.53226 276.08124L136.53226 277.01874Q136.89163 276.3625 137.1885 276.15936Q137.501 275.9406 137.876 275.9406Q138.40726 275.9406 138.95413 276.26874L138.59476 277.2531Q138.20413 277.01874 137.82913 277.01874Q137.46976 277.01874 137.1885 277.2375Q136.92288 277.4406 136.8135 277.8156Q136.626 278.3781 136.626 279.03436L136.626 282.3L135.57913 282.3ZM139.20413 279.1906Q139.20413 277.45624 140.15726 276.6281Q140.95413 275.9406 142.11038 275.9406Q143.39163 275.9406 144.20413 276.78436Q145.03226 277.6125 145.03226 279.09686Q145.03226 280.3 144.67288 280.9875Q144.3135 281.675 143.61038 282.0656Q142.92288 282.4406 142.11038 282.4406Q140.8135 282.4406 140.001 281.6125Q139.20413 280.76874 139.20413 279.1906ZM140.28226 279.1906Q140.28226 280.3781 140.79788 280.97186Q141.32913 281.5656 142.11038 281.5656Q142.90726 281.5656 143.42288 280.97186Q143.9385 280.3781 143.9385 279.15936Q143.9385 278.0031 143.40726 277.40936Q142.89163 276.8156 142.11038 276.8156Q141.32913 276.8156 140.79788 277.40936Q140.28226 277.9875 140.28226 279.1906ZM149.6885 282.3L149.6885 273.70624L151.40726 273.70624L153.4385 279.78436Q153.71976 280.64374 153.84476 281.0656Q153.98538 280.59686 154.29788 279.6906L156.36038 273.70624L157.89163 273.70624L157.89163 282.3L156.79788 282.3L156.79788 275.1125L154.29788 282.3L153.26663 282.3L150.78226 274.9875L150.78226 282.3L149.6885 282.3ZM158.29788 280.03436L159.36038 279.89374Q159.53226 280.78436 159.96976 281.1906Q160.40726 281.58124 161.03226 281.58124Q161.78226 281.58124 162.29788 281.0656Q162.8135 280.55 162.8135 279.78436Q162.8135 279.0656 162.32913 278.59686Q161.86038 278.1125 161.126 278.1125Q160.82913 278.1125 160.376 278.2375L160.501 277.3Q160.61038 277.3156 160.67288 277.3156Q161.34476 277.3156 161.876 276.97186Q162.42288 276.6125 162.42288 275.8781Q162.42288 275.3 162.03226 274.925Q161.64163 274.53436 161.01663 274.53436Q160.40726 274.53436 159.98538 274.925Q159.57913 275.3156 159.46976 276.08124L158.40726 275.89374Q158.59476 274.84686 159.28226 274.26874Q159.96976 273.675 160.98538 273.675Q161.6885 273.675 162.28226 273.9875Q162.876 274.28436 163.1885 274.8Q163.501 275.3156 163.501 275.90936Q163.501 276.45624 163.20413 276.925Q162.90726 277.3781 162.32913 277.64374Q163.07913 277.8156 163.501 278.3781Q163.92288 278.925 163.92288 279.76874Q163.92288 280.89374 163.09476 281.675Q162.28226 282.45624 161.03226 282.45624Q159.90726 282.45624 159.15726 281.78436Q158.40726 281.09686 158.29788 280.03436ZM168.71976 282.3L168.71976 273.70624L171.96976 273.70624Q172.8135 273.70624 173.26663 273.78436Q173.90726 273.89374 174.32913 274.1906Q174.76663 274.4875 175.01663 275.01874Q175.28226 275.55 175.28226 276.1906Q175.28226 277.28436 174.57913 278.05Q173.89163 278.8 172.0635 278.8L169.86038 278.8L169.86038 282.3L168.71976 282.3ZM169.86038 277.8L172.07913 277.8Q173.1885 277.8 173.64163 277.39374Q174.11038 276.97186 174.11038 276.22186Q174.11038 275.6906 173.82913 275.3156Q173.5635 274.925 173.126 274.8Q172.82913 274.72186 172.0635 274.72186L169.86038 274.72186L169.86038 277.8ZM176.57913 282.3L176.57913 276.08124L177.53226 276.08124L177.53226 277.01874Q177.89163 276.3625 178.1885 276.15936Q178.501 275.9406 178.876 275.9406Q179.40726 275.9406 179.95413 276.26874L179.59476 277.2531Q179.20413 277.01874 178.82913 277.01874Q178.46976 277.01874 178.1885 277.2375Q177.92288 277.4406 177.8135 277.8156Q177.626 278.3781 177.626 279.03436L177.626 282.3L176.57913 282.3ZM180.20413 279.1906Q180.20413 277.45624 181.15726 276.6281Q181.95413 275.9406 183.11038 275.9406Q184.39163 275.9406 185.20413 276.78436Q186.03226 277.6125 186.03226 279.09686Q186.03226 280.3 185.67288 280.9875Q185.3135 281.675 184.61038 282.0656Q183.92288 282.4406 183.11038 282.4406Q181.8135 282.4406 181.001 281.6125Q180.20413 280.76874 180.20413 279.1906ZM181.28226 279.1906Q181.28226 280.3781 181.79788 280.97186Q182.32913 281.5656 183.11038 281.5656Q183.90726 281.5656 184.42288 280.97186Q184.9385 280.3781 184.9385 279.15936Q184.9385 278.0031 184.40726 277.40936Q183.89163 276.8156 183.11038 276.8156Q182.32913 276.8156 181.79788 277.40936Q181.28226 277.9875 181.28226 279.1906ZM187.86038 282.3L187.86038 281.09686L189.0635 281.09686L189.0635 282.3Q189.0635 282.95624 188.82913 283.3625Q188.59476 283.78436 188.09476 284.0031L187.79788 283.55Q188.126 283.40936 188.28226 283.1125Q188.4385 282.83124 188.46976 282.3L187.86038 282.3ZM193.29788 280.03436L194.36038 279.89374Q194.53226 280.78436 194.96976 281.1906Q195.40726 281.58124 196.03226 281.58124Q196.78226 281.58124 197.29788 281.0656Q197.8135 280.55 197.8135 279.78436Q197.8135 279.0656 197.32913 278.59686Q196.86038 278.1125 196.126 278.1125Q195.82913 278.1125 195.376 278.2375L195.501 277.3Q195.61038 277.3156 195.67288 277.3156Q196.34476 277.3156 196.876 276.97186Q197.42288 276.6125 197.42288 275.8781Q197.42288 275.3 197.03226 274.925Q196.64163 274.53436 196.01663 274.53436Q195.40726 274.53436 194.98538 274.925Q194.57913 275.3156 194.46976 276.08124L193.40726 275.89374Q193.59476 274.84686 194.28226 274.26874Q194.96976 273.675 195.98538 273.675Q196.6885 273.675 197.28226 273.9875Q197.876 274.28436 198.1885 274.8Q198.501 275.3156 198.501 275.90936Q198.501 276.45624 198.20413 276.925Q197.90726 277.3781 197.32913 277.64374Q198.07913 277.8156 198.501 278.3781Q198.92288 278.925 198.92288 279.76874Q198.92288 280.89374 198.09476 281.675Q197.28226 282.45624 196.03226 282.45624Q194.90726 282.45624 194.15726 281.78436Q193.40726 281.09686 193.29788 280.03436ZM205.84476 281.28436L205.84476 282.3L200.15726 282.3Q200.15726 281.925 200.28226 281.5656Q200.501 280.9875 200.96976 280.425Q201.45413 279.8625 202.36038 279.1281Q203.76663 277.97186 204.251 277.3Q204.751 276.6281 204.751 276.03436Q204.751 275.40936 204.29788 274.9875Q203.84476 274.55 203.126 274.55Q202.36038 274.55 201.90726 275.0031Q201.45413 275.45624 201.4385 276.26874L200.36038 276.15936Q200.46976 274.9406 201.1885 274.3156Q201.92288 273.675 203.15726 273.675Q204.39163 273.675 205.11038 274.3625Q205.82913 275.05 205.82913 276.0656Q205.82913 276.58124 205.61038 277.08124Q205.40726 277.5656 204.90726 278.1281Q204.42288 278.675 203.29788 279.6281Q202.34476 280.425 202.0635 280.72186Q201.79788 281.0031 201.626 281.28436L205.84476 281.28436ZM211.751 278.925L211.751 277.925L215.376 277.90936L215.376 281.09686Q214.54788 281.76874 213.65726 282.1125Q212.76663 282.4406 211.82913 282.4406Q210.5635 282.4406 209.51663 281.90936Q208.48538 281.3625 207.95413 280.34686Q207.4385 279.3156 207.4385 278.05Q207.4385 276.78436 207.95413 275.70624Q208.48538 274.6125 209.46976 274.09686Q210.45413 273.5656 211.73538 273.5656Q212.67288 273.5656 213.42288 273.8625Q214.17288 274.15936 214.59476 274.70624Q215.03226 275.2375 215.251 276.1125L214.23538 276.39374Q214.03226 275.7375 213.73538 275.3625Q213.45413 274.9875 212.92288 274.76874Q212.39163 274.53436 211.751 274.53436Q210.96976 274.53436 210.39163 274.76874Q209.82913 275.0031 209.46976 275.39374Q209.126 275.78436 208.9385 276.2531Q208.61038 277.05 208.61038 277.97186Q208.61038 279.1281 209.001 279.90936Q209.40726 280.675 210.15726 281.05Q210.90726 281.425 211.76663 281.425Q212.501 281.425 213.20413 281.14374Q213.90726 280.84686 214.26663 280.53436L214.26663 278.925L211.751 278.925ZM217.5635 282.3L216.57913 282.3L216.57913 273.70624L217.64163 273.70624L217.64163 276.76874Q218.3135 275.9406 219.34476 275.9406Q219.92288 275.9406 220.42288 276.175Q220.9385 276.39374 221.26663 276.8156Q221.61038 277.2375 221.79788 277.83124Q221.98538 278.425 221.98538 279.09686Q221.98538 280.6906 221.1885 281.5656Q220.39163 282.4406 219.29788 282.4406Q218.1885 282.4406 217.5635 281.51874L217.5635 282.3ZM217.54788 279.14374Q217.54788 280.2531 217.86038 280.7531Q218.36038 281.5656 219.20413 281.5656Q219.89163 281.5656 220.39163 280.97186Q220.90726 280.3781 220.90726 279.175Q220.90726 277.95624 220.42288 277.3781Q219.9385 276.8 219.251 276.8Q218.5635 276.8 218.04788 277.40936Q217.54788 278.0031 217.54788 279.14374Z" fill-rule="nonzero"/><path fill="#000000" d="M288.09274 282.3L288.09274 273.70624L289.8115 273.70624L291.84274 279.78436Q292.124 280.64374 292.249 281.0656Q292.38962 280.59686 292.70212 279.6906L294.76462 273.70624L296.29587 273.70624L296.29587 282.3L295.20212 282.3L295.20212 275.1125L292.70212 282.3L291.67087 282.3L289.1865 274.9875L289.1865 282.3L288.09274 282.3ZM297.07712 282.3L297.07712 273.70624L300.3115 273.70624Q301.29587 273.70624 301.88962 273.97186Q302.48337 274.2375 302.8115 274.78436Q303.15524 275.3156 303.15524 275.90936Q303.15524 276.45624 302.85837 276.9406Q302.5615 277.425 301.95212 277.72186Q302.73337 277.95624 303.13962 278.51874Q303.5615 279.0656 303.5615 279.8156Q303.5615 280.40936 303.3115 280.9406Q303.0615 281.45624 302.6865 281.7375Q302.3115 282.01874 301.73337 282.15936Q301.17087 282.3 300.35837 282.3L297.07712 282.3ZM298.21774 277.3156L300.07712 277.3156Q300.82712 277.3156 301.15524 277.22186Q301.59274 277.09686 301.8115 276.8Q302.03024 276.4875 302.03024 276.03436Q302.03024 275.6125 301.82712 275.28436Q301.624 274.95624 301.23337 274.84686Q300.85837 274.72186 299.9365 274.72186L298.21774 274.72186L298.21774 277.3156ZM298.21774 281.28436L300.35837 281.28436Q300.90524 281.28436 301.124 281.2375Q301.53024 281.175 301.78024 281.01874Q302.04587 280.84686 302.21774 280.53436Q302.38962 280.22186 302.38962 279.8156Q302.38962 279.33124 302.13962 278.97186Q301.90524 278.6125 301.46774 278.47186Q301.03024 278.33124 300.20212 278.33124L298.21774 278.33124L298.21774 281.28436ZM308.124 282.3L308.124 273.70624L311.374 273.70624Q312.21774 273.70624 312.67087 273.78436Q313.3115 273.89374 313.73337 274.1906Q314.17087 274.4875 314.42087 275.01874Q314.6865 275.55 314.6865 276.1906Q314.6865 277.28436 313.98337 278.05Q313.29587 278.8 311.46774 278.8L309.26462 278.8L309.26462 282.3L308.124 282.3ZM309.26462 277.8L311.48337 277.8Q312.59274 277.8 313.04587 277.39374Q313.51462 276.97186 313.51462 276.22186Q313.51462 275.6906 313.23337 275.3156Q312.96774 274.925 312.53024 274.8Q312.23337 274.72186 311.46774 274.72186L309.26462 274.72186L309.26462 277.8ZM315.98337 282.3L315.98337 276.08124L316.9365 276.08124L316.9365 277.01874Q317.29587 276.3625 317.59274 276.15936Q317.90524 275.9406 318.28024 275.9406Q318.8115 275.9406 319.35837 276.26874L318.999 277.2531Q318.60837 277.01874 318.23337 277.01874Q317.874 277.01874 317.59274 277.2375Q317.32712 277.4406 317.21774 277.8156Q317.03024 278.3781 317.03024 279.03436L317.03024 282.3L315.98337 282.3ZM319.60837 279.1906Q319.60837 277.45624 320.5615 276.6281Q321.35837 275.9406 322.51462 275.9406Q323.79587 275.9406 324.60837 276.78436Q325.4365 277.6125 325.4365 279.09686Q325.4365 280.3 325.07712 280.9875Q324.71774 281.675 324.01462 282.0656Q323.32712 282.4406 322.51462 282.4406Q321.21774 282.4406 320.40524 281.6125Q319.60837 280.76874 319.60837 279.1906ZM320.6865 279.1906Q320.6865 280.3781 321.20212 280.97186Q321.73337 281.5656 322.51462 281.5656Q323.3115 281.5656 323.82712 280.97186Q324.34274 280.3781 324.34274 279.15936Q324.34274 278.0031 323.8115 277.40936Q323.29587 276.8156 322.51462 276.8156Q321.73337 276.8156 321.20212 277.40936Q320.6865 277.9875 320.6865 279.1906ZM330.32712 282.3L330.32712 273.70624L331.45212 273.70624L331.45212 282.3L330.32712 282.3ZM332.999 282.3L332.999 276.08124L333.9365 276.08124L333.9365 276.95624Q334.624 275.9406 335.92087 275.9406Q336.48337 275.9406 336.95212 276.14374Q337.4365 276.34686 337.67087 276.675Q337.90524 277.0031 337.999 277.4406Q338.04587 277.7375 338.04587 278.47186L338.04587 282.3L336.999 282.3L336.999 278.51874Q336.999 277.8625 336.874 277.55Q336.749 277.2375 336.4365 277.05Q336.124 276.84686 335.70212 276.84686Q335.03024 276.84686 334.53024 277.28436Q334.04587 277.70624 334.04587 278.89374L334.04587 282.3L332.999 282.3ZM342.29587 281.3625L342.45212 282.28436Q341.999 282.3781 341.65524 282.3781Q341.07712 282.3781 340.76462 282.20624Q340.45212 282.01874 340.3115 281.72186Q340.1865 281.425 340.1865 280.47186L340.1865 276.89374L339.42087 276.89374L339.42087 276.08124L340.1865 276.08124L340.1865 274.53436L341.23337 273.90936L341.23337 276.08124L342.29587 276.08124L342.29587 276.89374L341.23337 276.89374L341.23337 280.53436Q341.23337 280.9875 341.28024 281.1125Q341.34274 281.2375 341.46774 281.3156Q341.59274 281.39374 341.82712 281.39374Q342.01462 281.39374 342.29587 281.3625ZM347.249 280.3L348.34274 280.425Q348.09274 281.3781 347.38962 281.90936Q346.6865 282.4406 345.60837 282.4406Q344.249 282.4406 343.4365 281.59686Q342.63962 280.7531 342.63962 279.2375Q342.63962 277.675 343.45212 276.8156Q344.26462 275.9406 345.54587 275.9406Q346.79587 275.9406 347.57712 276.78436Q348.374 277.6281 348.374 279.175Q348.374 279.26874 348.374 279.45624L343.73337 279.45624Q343.79587 280.4875 344.3115 281.03436Q344.82712 281.5656 345.60837 281.5656Q346.1865 281.5656 346.59274 281.26874Q347.01462 280.95624 347.249 280.3ZM343.79587 278.59686L347.26462 278.59686Q347.20212 277.8 346.874 277.40936Q346.35837 276.8 345.5615 276.8Q344.82712 276.8 344.32712 277.28436Q343.84274 277.76874 343.79587 278.59686ZM349.96774 282.3L349.96774 273.70624L351.03024 273.70624L351.03024 282.3L349.96774 282.3ZM355.999 274.925L355.999 273.70624L357.0615 273.70624L357.0615 274.925L355.999 274.925ZM355.999 282.3L355.999 276.08124L357.0615 276.08124L357.0615 282.3L355.999 282.3ZM358.70212 280.05L359.8115 279.95624Q359.9365 280.76874 360.374 281.175Q360.82712 281.58124 361.46774 281.58124Q362.21774 281.58124 362.749 281.0031Q363.28024 280.425 363.28024 279.4875Q363.28024 278.58124 362.76462 278.0656Q362.26462 277.53436 361.4365 277.53436Q360.9365 277.53436 360.51462 277.76874Q360.10837 278.0031 359.874 278.3625L358.88962 278.2375L359.71774 273.83124L363.999 273.83124L363.999 274.83124L360.5615 274.83124L360.10837 277.14374Q360.874 276.59686 361.71774 276.59686Q362.84274 276.59686 363.60837 277.3781Q364.38962 278.15936 364.38962 279.39374Q364.38962 280.55 363.71774 281.40936Q362.88962 282.4406 361.46774 282.4406Q360.29587 282.4406 359.54587 281.78436Q358.8115 281.1281 358.70212 280.05ZM366.26462 282.3L366.26462 281.09686L367.46774 281.09686L367.46774 282.3Q367.46774 282.95624 367.23337 283.3625Q366.999 283.78436 366.499 284.0031L366.20212 283.55Q366.53024 283.40936 366.6865 283.1125Q366.84274 282.83124 366.874 282.3L366.26462 282.3ZM375.67087 282.3L374.624 282.3L374.624 275.58124Q374.23337 275.9406 373.60837 276.3156Q372.999 276.675 372.51462 276.84686L372.51462 275.83124Q373.38962 275.40936 374.04587 274.83124Q374.71774 274.2375 374.999 273.675L375.67087 273.675L375.67087 282.3ZM384.17087 275.8156L383.124 275.89374Q382.98337 275.26874 382.73337 274.9875Q382.29587 274.53436 381.67087 274.53436Q381.17087 274.53436 380.78024 274.8156Q380.29587 275.1906 379.999 275.89374Q379.71774 276.58124 379.70212 277.8625Q380.07712 277.28436 380.624 277.0031Q381.1865 276.72186 381.79587 276.72186Q382.84274 276.72186 383.57712 277.5031Q384.32712 278.28436 384.32712 279.5031Q384.32712 280.3156 383.96774 281.01874Q383.624 281.70624 383.01462 282.08124Q382.40524 282.4406 381.63962 282.4406Q380.3115 282.4406 379.48337 281.47186Q378.65524 280.5031 378.65524 278.28436Q378.65524 275.78436 379.57712 274.65936Q380.374 273.675 381.73337 273.675Q382.749 273.675 383.38962 274.2531Q384.04587 274.8156 384.17087 275.8156ZM379.874 279.51874Q379.874 280.0656 380.09274 280.5656Q380.32712 281.05 380.73337 281.3156Q381.15524 281.58124 381.624 281.58124Q382.28024 281.58124 382.76462 281.05Q383.249 280.5031 383.249 279.58124Q383.249 278.6906 382.76462 278.175Q382.29587 277.65936 381.57712 277.65936Q380.85837 277.65936 380.35837 278.175Q379.874 278.6906 379.874 279.51874ZM390.15524 278.925L390.15524 277.925L393.78024 277.90936L393.78024 281.09686Q392.95212 281.76874 392.0615 282.1125Q391.17087 282.4406 390.23337 282.4406Q388.96774 282.4406 387.92087 281.90936Q386.88962 281.3625 386.35837 280.34686Q385.84274 279.3156 385.84274 278.05Q385.84274 276.78436 386.35837 275.70624Q386.88962 274.6125 387.874 274.09686Q388.85837 273.5656 390.13962 273.5656Q391.07712 273.5656 391.82712 273.8625Q392.57712 274.15936 392.999 274.70624Q393.4365 275.2375 393.65524 276.1125L392.63962 276.39374Q392.4365 275.7375 392.13962 275.3625Q391.85837 274.9875 391.32712 274.76874Q390.79587 274.53436 390.15524 274.53436Q389.374 274.53436 388.79587 274.76874Q388.23337 275.0031 387.874 275.39374Q387.53024 275.78436 387.34274 276.2531Q387.01462 277.05 387.01462 277.97186Q387.01462 279.1281 387.40524 279.90936Q387.8115 280.675 388.5615 281.05Q389.3115 281.425 390.17087 281.425Q390.90524 281.425 391.60837 281.14374Q392.3115 280.84686 392.67087 280.53436L392.67087 278.925L390.15524 278.925ZM395.96774 282.3L394.98337 282.3L394.98337 273.70624L396.04587 273.70624L396.04587 276.76874Q396.71774 275.9406 397.749 275.9406Q398.32712 275.9406 398.82712 276.175Q399.34274 276.39374 399.67087 276.8156Q400.01462 277.2375 400.20212 277.83124Q400.38962 278.425 400.38962 279.09686Q400.38962 280.6906 399.59274 281.5656Q398.79587 282.4406 397.70212 282.4406Q396.59274 282.4406 395.96774 281.51874L395.96774 282.3ZM395.95212 279.14374Q395.95212 280.2531 396.26462 280.7531Q396.76462 281.5656 397.60837 281.5656Q398.29587 281.5656 398.79587 280.97186Q399.3115 280.3781 399.3115 279.175Q399.3115 277.95624 398.82712 277.3781Q398.34274 276.8 397.65524 276.8Q396.96774 276.8 396.45212 277.40936Q395.95212 278.0031 395.95212 279.14374Z" fill-rule="nonzero"/><path fill="#4285f4" d="M182.5 53.833332C182.5 53.281048 182.94771 52.833332 183.5 52.833332L193.5 52.833332C194.05229 52.833332 194.5 53.281048 194.5 53.833332L194.5 63.833332C194.5 64.38562 194.05229 64.833336 193.5 64.833336L183.5 64.833336C182.94771 64.833336 182.5 64.38562 182.5 63.833332Z" fill-rule="nonzero"/><path fill="#1a1a1a" d="M203.42188 62.833332L203.42188 54.239582L206.39062 54.239582Q207.39062 54.239582 207.92188 54.364582Q208.65625 54.536457 209.17188 54.973957Q209.85938 55.552082 210.1875 56.458332Q210.53125 57.348957 210.53125 58.489582Q210.53125 59.473957 210.29688 60.223957Q210.07812 60.973957 209.71875 61.473957Q209.35938 61.973957 208.92188 62.255207Q208.5 62.536457 207.90625 62.692707Q207.3125 62.833332 206.53125 62.833332L203.42188 62.833332ZM204.5625 61.817707L206.39062 61.817707Q207.25 61.817707 207.73438 61.661457Q208.21875 61.505207 208.5 61.208332Q208.90625 60.817707 209.125 60.130207Q209.35938 59.442707 209.35938 58.473957Q209.35938 57.130207 208.90625 56.411457Q208.46875 55.677082 207.84375 55.427082Q207.375 55.255207 206.375 55.255207L204.5625 55.255207L204.5625 61.817707ZM216.54688 60.833332L217.64062 60.958332Q217.39062 61.911457 216.6875 62.442707Q215.98438 62.973957 214.90625 62.973957Q213.54688 62.973957 212.73438 62.130207Q211.9375 61.286457 211.9375 59.770832Q211.9375 58.208332 212.75 57.348957Q213.5625 56.473957 214.84375 56.473957Q216.09375 56.473957 216.875 57.317707Q217.67188 58.161457 217.67188 59.708332Q217.67188 59.802082 217.67188 59.989582L213.03125 59.989582Q213.09375 61.020832 213.60938 61.567707Q214.125 62.098957 214.90625 62.098957Q215.48438 62.098957 215.89062 61.802082Q216.3125 61.489582 216.54688 60.833332ZM213.09375 59.130207L216.5625 59.130207Q216.5 58.333332 216.17188 57.942707Q215.65625 57.333332 214.85938 57.333332Q214.125 57.333332 213.625 57.817707Q213.14062 58.302082 213.09375 59.130207ZM223.54688 60.833332L224.64062 60.958332Q224.39062 61.911457 223.6875 62.442707Q222.98438 62.973957 221.90625 62.973957Q220.54688 62.973957 219.73438 62.130207Q218.9375 61.286457 218.9375 59.770832Q218.9375 58.208332 219.75 57.348957Q220.5625 56.473957 221.84375 56.473957Q223.09375 56.473957 223.875 57.317707Q224.67188 58.161457 224.67188 59.708332Q224.67188 59.802082 224.67188 59.989582L220.03125 59.989582Q220.09375 61.020832 220.60938 61.567707Q221.125 62.098957 221.90625 62.098957Q222.48438 62.098957 222.89062 61.802082Q223.3125 61.489582 223.54688 60.833332ZM220.09375 59.130207L223.5625 59.130207Q223.5 58.333332 223.17188 57.942707Q222.65625 57.333332 221.85938 57.333332Q221.125 57.333332 220.625 57.817707Q220.14062 58.302082 220.09375 59.130207ZM230.32812 62.833332L230.32812 62.052082Q229.73438 62.973957 228.59375 62.973957Q227.84375 62.973957 227.21875 62.567707Q226.59375 62.145832 226.25 61.411457Q225.90625 60.677082 225.90625 59.723957Q225.90625 58.802082 226.21875 58.036457Q226.53125 57.270832 227.15625 56.880207Q227.78125 56.473957 228.54688 56.473957Q229.10938 56.473957 229.54688 56.708332Q229.98438 56.942707 230.26562 57.317707L230.26562 54.239582L231.3125 54.239582L231.3125 62.833332L230.32812 62.833332ZM227.0 59.723957Q227.0 60.927082 227.5 61.520832Q228.0 62.098957 228.6875 62.098957Q229.375 62.098957 229.85938 61.536457Q230.34375 60.973957 230.34375 59.817707Q230.34375 58.536457 229.84375 57.942707Q229.35938 57.348957 228.64062 57.348957Q227.9375 57.348957 227.46875 57.927082Q227.0 58.489582 227.0 59.723957Z" fill-rule="nonzero"/><path fill="#ea4335" d="M248.5 53.833332C248.5 53.281048 248.94771 52.833332 249.5 52.833332L259.5 52.833332C260.05228 52.833332 260.5 53.281048 260.5 53.833332L260.5 63.833332C260.5 64.38562 260.05228 64.833336 259.5 64.833336L249.5 64.833336C248.94771 64.833336 248.5 64.38562 248.5 63.833332Z" fill-rule="nonzero"/><path fill="#1a1a1a" d="M269.42188 62.833332L269.42188 54.239582L270.57812 54.239582L275.09375 60.989582L275.09375 54.239582L276.1875 54.239582L276.1875 62.833332L275.01562 62.833332L270.5 56.083332L270.5 62.833332L269.42188 62.833332ZM278.29688 55.458332L278.29688 54.239582L279.35938 54.239582L279.35938 55.458332L278.29688 55.458332ZM278.29688 62.833332L278.29688 56.614582L279.35938 56.614582L279.35938 62.833332L278.29688 62.833332ZM281.29688 65.22395L281.29688 56.614582L282.25 56.614582L282.25 57.411457Q282.59375 56.942707 283.01562 56.708332Q283.45312 56.473957 284.0625 56.473957Q284.85938 56.473957 285.46875 56.880207Q286.07812 57.286457 286.375 58.036457Q286.6875 58.786457 286.6875 59.677082Q286.6875 60.630207 286.34375 61.395832Q286.01562 62.161457 285.35938 62.567707Q284.70312 62.973957 283.98438 62.973957Q283.45312 62.973957 283.03125 62.755207Q282.60938 62.520832 282.34375 62.192707L282.34375 65.22395L281.29688 65.22395ZM282.25 59.755207Q282.25 60.958332 282.73438 61.536457Q283.21875 62.098957 283.90625 62.098957Q284.60938 62.098957 285.10938 61.505207Q285.60938 60.911457 285.60938 59.661457Q285.60938 58.473957 285.125 57.895832Q284.64062 57.302082 283.95312 57.302082Q283.28125 57.302082 282.76562 57.927082Q282.25 58.552082 282.25 59.755207ZM288.29688 65.22395L288.29688 56.614582L289.25 56.614582L289.25 57.411457Q289.59375 56.942707 290.01562 56.708332Q290.45312 56.473957 291.0625 56.473957Q291.85938 56.473957 292.46875 56.880207Q293.07812 57.286457 293.375 58.036457Q293.6875 58.786457 293.6875 59.677082Q293.6875 60.630207 293.34375 61.395832Q293.01562 62.161457 292.35938 62.567707Q291.70312 62.973957 290.98438 62.973957Q290.45312 62.973957 290.03125 62.755207Q289.60938 62.520832 289.34375 62.192707L289.34375 65.22395L288.29688 65.22395ZM289.25 59.755207Q289.25 60.958332 289.73438 61.536457Q290.21875 62.098957 290.90625 62.098957Q291.60938 62.098957 292.10938 61.505207Q292.60938 60.911457 292.60938 59.661457Q292.60938 58.473957 292.125 57.895832Q291.64062 57.302082 290.95312 57.302082Q290.28125 57.302082 289.76562 57.927082Q289.25 58.552082 289.25 59.755207ZM295.25 65.22395L295.125 64.23958Q295.46875 64.33333 295.73438 64.33333Q296.07812 64.33333 296.28125 64.20833Q296.5 64.09895 296.64062 63.895832Q296.73438 63.723957 296.96875 63.098957Q296.98438 63.020832 297.0625 62.848957L294.6875 56.614582L295.82812 56.614582L297.125 60.208332Q297.375 60.895832 297.57812 61.661457Q297.76562 60.927082 298.01562 60.239582L299.34375 56.614582L300.39062 56.614582L298.03125 62.942707Q297.64062 63.958332 297.4375 64.34895Q297.15625 64.8802 296.78125 65.11458Q296.42188 65.36458 295.92188 65.36458Q295.625 65.36458 295.25 65.22395Z" fill-rule="nonzero"/><path fill="#757575" d="M18.246876 35.7L18.246876 21.3875L23.16875 21.3875Q24.840626 21.3875 25.73125 21.590626Q26.95 21.871876 27.825 22.60625Q28.95 23.575 29.5125 25.059376Q30.075 26.54375 30.075 28.465626Q30.075 30.090626 29.7 31.35625Q29.325 32.60625 28.715626 33.434376Q28.121876 34.2625 27.41875 34.746876Q26.715626 35.215626 25.715626 35.465626Q24.715626 35.7 23.403126 35.7L18.246876 35.7ZM20.1375 34.0125L23.2 34.0125Q24.60625 34.0125 25.403126 33.746876Q26.215626 33.48125 26.7 32.996876Q27.371876 32.325 27.746876 31.2Q28.121876 30.059376 28.121876 28.434376Q28.121876 26.184376 27.3875 24.98125Q26.653126 23.778126 25.590626 23.371876Q24.840626 23.075 23.153126 23.075L20.1375 23.075L20.1375 34.0125ZM39.121876 32.35625L40.934376 32.590626Q40.5125 34.16875 39.340626 35.059376Q38.184376 35.934376 36.371876 35.934376Q34.10625 35.934376 32.7625 34.54375Q31.434376 33.1375 31.434376 30.60625Q31.434376 27.98125 32.778126 26.54375Q34.121876 25.090626 36.278126 25.090626Q38.35625 25.090626 39.66875 26.5125Q40.996876 27.91875 40.996876 30.496876Q40.996876 30.653126 40.98125 30.965626L33.246876 30.965626Q33.340626 32.66875 34.215626 33.575Q35.090626 34.48125 36.3875 34.48125Q37.35625 34.48125 38.028126 33.98125Q38.715626 33.465626 39.121876 32.35625ZM33.340626 29.5125L39.1375 29.5125Q39.028126 28.215626 38.48125 27.559376Q37.6375 26.54375 36.29375 26.54375Q35.090626 26.54375 34.2625 27.35625Q33.434376 28.153126 33.340626 29.5125ZM49.79375 31.903126L51.5125 32.121876Q51.23125 33.91875 50.059376 34.934376Q48.903126 35.934376 47.2 35.934376Q45.075 35.934376 43.778126 34.54375Q42.48125 33.153126 42.48125 30.559376Q42.48125 28.871876 43.028126 27.621876Q43.590626 26.35625 44.73125 25.73125Q45.871876 25.090626 47.215626 25.090626Q48.903126 25.090626 49.965626 25.95Q51.04375 26.809376 51.35625 28.371876L49.6375 28.6375Q49.403126 27.590626 48.778126 27.075Q48.153126 26.54375 47.278126 26.54375Q45.95 26.54375 45.121876 27.496876Q44.29375 28.45 44.29375 30.496876Q44.29375 32.590626 45.090626 33.54375Q45.8875 34.48125 47.184376 34.48125Q48.215626 34.48125 48.903126 33.85625Q49.60625 33.215626 49.79375 31.903126ZM52.371876 30.5125Q52.371876 27.6375 53.965626 26.246876Q55.309376 25.090626 57.23125 25.090626Q59.371876 25.090626 60.715626 26.496876Q62.075 27.903126 62.075 30.371876Q62.075 32.371876 61.48125 33.528126Q60.8875 34.66875 59.73125 35.309376Q58.590626 35.934376 57.23125 35.934376Q55.04375 35.934376 53.7 34.54375Q52.371876 33.1375 52.371876 30.5125ZM54.16875 30.5125Q54.16875 32.5125 55.028126 33.496876Q55.903126 34.48125 57.23125 34.48125Q58.54375 34.48125 59.403126 33.496876Q60.278126 32.496876 60.278126 30.45Q60.278126 28.528126 59.403126 27.54375Q58.528126 26.54375 57.23125 26.54375Q55.903126 26.54375 55.028126 27.54375Q54.16875 28.528126 54.16875 30.5125ZM70.74687 35.7L70.74687 34.3875Q69.7625 35.934376 67.84062 35.934376Q66.60625 35.934376 65.55937 35.246876Q64.52812 34.559376 63.95 33.340626Q63.3875 32.121876 63.3875 30.528126Q63.3875 28.965626 63.903126 27.7Q64.41875 26.434376 65.45 25.7625Q66.49687 25.090626 67.7625 25.090626Q68.7 25.090626 69.43437 25.496876Q70.16875 25.8875 70.6375 26.5125L70.6375 21.3875L72.37187 21.3875L72.37187 35.7L70.74687 35.7ZM65.18437 30.528126Q65.18437 32.5125 66.02812 33.496876Q66.87187 34.48125 68.0125 34.48125Q69.16875 34.48125 69.96562 33.54375Q70.77812 32.60625 70.77812 30.66875Q70.77812 28.54375 69.95 27.54375Q69.1375 26.54375 67.93437 26.54375Q66.7625 26.54375 65.96562 27.5125Q65.18437 28.465626 65.18437 30.528126ZM75.02812 23.403126L75.02812 21.3875L76.79375 21.3875L76.79375 23.403126L75.02812 23.403126ZM75.02812 35.7L75.02812 25.325L76.79375 25.325L76.79375 35.7L75.02812 35.7ZM79.0125 35.7L79.0125 25.325L80.60625 25.325L80.60625 26.809376Q81.74687 25.090626 83.90312 25.090626Q84.84062 25.090626 85.62187 25.434376Q86.41875 25.7625 86.80937 26.309376Q87.2 26.85625 87.35625 27.60625Q87.45 28.10625 87.45 29.325L87.45 35.7L85.68437 35.7L85.68437 29.3875Q85.68437 28.309376 85.48125 27.778126Q85.27812 27.246876 84.74687 26.934376Q84.23125 26.621876 83.52812 26.621876Q82.40312 26.621876 81.59062 27.340626Q80.77812 28.04375 80.77812 30.028126L80.77812 35.7L79.0125 35.7ZM88.7 36.559376L90.40312 36.809376Q90.5125 37.60625 90.99687 37.965626Q91.65312 38.45 92.79375 38.45Q94.0125 38.45 94.66875 37.965626Q95.34062 37.48125 95.575 36.60625Q95.71562 36.059376 95.7 34.340626Q94.54375 35.7 92.825 35.7Q90.68437 35.7 89.5125 34.153126Q88.34062 32.60625 88.34062 30.45Q88.34062 28.965626 88.87187 27.715626Q89.41875 26.465626 90.43437 25.778126Q91.46562 25.090626 92.84062 25.090626Q94.66875 25.090626 95.87187 26.575L95.87187 25.325L97.48125 25.325L97.48125 34.29375Q97.48125 36.715626 96.98125 37.715626Q96.49687 38.73125 95.41875 39.309376Q94.35625 39.903126 92.79375 39.903126Q90.95 39.903126 89.79375 39.075Q88.65312 38.246876 88.7 36.559376ZM90.15312 30.325Q90.15312 32.371876 90.96562 33.309376Q91.77812 34.246876 92.99687 34.246876Q94.2 34.246876 95.0125 33.309376Q95.84062 32.371876 95.84062 30.3875Q95.84062 28.48125 94.99687 27.5125Q94.15312 26.54375 92.96562 26.54375Q91.79375 26.54375 90.96562 27.496876Q90.15312 28.45 90.15312 30.325ZM112.79375 34.41875Q111.80937 35.246876 110.90312 35.590626Q109.99687 35.934376 108.96562 35.934376Q107.2625 35.934376 106.34062 35.10625Q105.41875 34.2625 105.41875 32.965626Q105.41875 32.2 105.7625 31.575Q106.12187 30.95 106.68437 30.575Q107.24687 30.184376 107.95 29.98125Q108.46562 29.85625 109.5125 29.715626Q111.6375 29.465626 112.6375 29.121876Q112.65312 28.7625 112.65312 28.653126Q112.65312 27.590626 112.15312 27.1375Q111.48125 26.54375 110.15312 26.54375Q108.90312 26.54375 108.30937 26.98125Q107.73125 27.41875 107.45 28.528126L105.73125 28.29375Q105.96562 27.184376 106.49687 26.5125Q107.02812 25.825 108.04375 25.465626Q109.05937 25.090626 110.40312 25.090626Q111.73125 25.090626 112.55937 25.403126Q113.3875 25.715626 113.77812 26.2Q114.16875 26.66875 114.325 27.3875Q114.41875 27.840626 114.41875 29.0125L114.41875 31.35625Q114.41875 33.809376 114.52812 34.465626Q114.6375 35.10625 114.98125 35.7L113.1375 35.7Q112.87187 35.153126 112.79375 34.41875ZM112.6375 30.496876Q111.68437 30.8875 109.7625 31.153126Q108.68437 31.309376 108.23125 31.5125Q107.79375 31.7 107.54375 32.075Q107.29375 32.45 107.29375 32.91875Q107.29375 33.621876 107.825 34.090626Q108.35625 34.559376 109.3875 34.559376Q110.40312 34.559376 111.18437 34.121876Q111.98125 33.66875 112.35625 32.903126Q112.6375 32.29375 112.6375 31.1375L112.6375 30.496876ZM123.0125 35.7L123.0125 21.3875L124.77812 21.3875L124.77812 26.5125Q126.0125 25.090626 127.8875 25.090626Q129.02812 25.090626 129.87187 25.54375Q130.73125 25.996876 131.09062 26.809376Q131.46562 27.60625 131.46562 29.121876L131.46562 35.7L129.71562 35.7L129.71562 29.121876Q129.71562 27.809376 129.1375 27.215626Q128.55937 26.60625 127.52812 26.60625Q126.74687 26.60625 126.04375 27.0125Q125.35625 27.41875 125.05937 28.121876Q124.77812 28.809376 124.77812 30.028126L124.77812 35.7L123.0125 35.7ZM139.80937 35.7L139.80937 34.16875Q138.60625 35.934376 136.52812 35.934376Q135.60625 35.934376 134.80937 35.590626Q134.0125 35.23125 133.62187 34.7Q133.24687 34.16875 133.09062 33.3875Q132.98125 32.871876 132.98125 31.746876L132.98125 25.325L134.73125 25.325L134.73125 31.075Q134.73125 32.45 134.84062 32.934376Q135.0125 33.621876 135.54375 34.028126Q136.09062 34.41875 136.87187 34.41875Q137.66875 34.41875 138.35625 34.0125Q139.05937 33.60625 139.34062 32.91875Q139.6375 32.215626 139.6375 30.8875L139.6375 25.325L141.3875 25.325L141.3875 35.7L139.80937 35.7ZM142.7 36.559376L144.40312 36.809376Q144.5125 37.60625 144.99687 37.965626Q145.65312 38.45 146.79375 38.45Q148.0125 38.45 148.66875 37.965626Q149.34062 37.48125 149.575 36.60625Q149.71562 36.059376 149.7 34.340626Q148.54375 35.7 146.825 35.7Q144.68437 35.7 143.5125 34.153126Q142.34062 32.60625 142.34062 30.45Q142.34062 28.965626 142.87187 27.715626Q143.41875 26.465626 144.43437 25.778126Q145.46562 25.090626 146.84062 25.090626Q148.66875 25.090626 149.87187 26.575L149.87187 25.325L151.48125 25.325L151.48125 34.29375Q151.48125 36.715626 150.98125 37.715626Q150.49687 38.73125 149.41875 39.309376Q148.35625 39.903126 146.79375 39.903126Q144.95 39.903126 143.79375 39.075Q142.65312 38.246876 142.7 36.559376ZM144.15312 30.325Q144.15312 32.371876 144.96562 33.309376Q145.77812 34.246876 146.99687 34.246876Q148.2 34.246876 149.0125 33.309376Q149.84062 32.371876 149.84062 30.3875Q149.84062 28.48125 148.99687 27.5125Q148.15312 26.54375 146.96562 26.54375Q145.79375 26.54375 144.96562 27.496876Q144.15312 28.45 144.15312 30.325ZM161.12187 32.35625L162.93437 32.590626Q162.5125 34.16875 161.34062 35.059376Q160.18437 35.934376 158.37187 35.934376Q156.10625 35.934376 154.7625 34.54375Q153.43437 33.1375 153.43437 30.60625Q153.43437 27.98125 154.77812 26.54375Q156.12187 25.090626 158.27812 25.090626Q160.35625 25.090626 161.66875 26.5125Q162.99687 27.91875 162.99687 30.496876Q162.99687 30.653126 162.98125 30.965626L155.24687 30.965626Q155.34062 32.66875 156.21562 33.575Q157.09062 34.48125 158.3875 34.48125Q159.35625 34.48125 160.02812 33.98125Q160.71562 33.465626 161.12187 32.35625ZM155.34062 29.5125L161.1375 29.5125Q161.02812 28.215626 160.48125 27.559376Q159.6375 26.54375 158.29375 26.54375Q157.09062 26.54375 156.2625 27.35625Q155.43437 28.153126 155.34062 29.5125ZM171.0125 35.7L171.0125 25.325L172.59062 25.325L172.59062 26.778126Q173.075 26.028126 173.8875 25.559376Q174.7 25.090626 175.73125 25.090626Q176.8875 25.090626 177.62187 25.575Q178.35625 26.04375 178.66875 26.903126Q179.90312 25.090626 181.87187 25.090626Q183.41875 25.090626 184.24687 25.95Q185.075 26.809376 185.075 28.575L185.075 35.7L183.325 35.7L183.325 29.16875Q183.325 28.10625 183.15312 27.653126Q182.98125 27.184376 182.52812 26.903126Q182.09062 26.621876 181.48125 26.621876Q180.3875 26.621876 179.65312 27.35625Q178.93437 28.075 178.93437 29.66875L178.93437 35.7L177.18437 35.7L177.18437 28.965626Q177.18437 27.79375 176.74687 27.215626Q176.325 26.621876 175.34062 26.621876Q174.60625 26.621876 173.96562 27.0125Q173.34062 27.403126 173.05937 28.153126Q172.77812 28.903126 172.77812 30.325L172.77812 35.7L171.0125 35.7ZM193.79375 34.41875Q192.80937 35.246876 191.90312 35.590626Q190.99687 35.934376 189.96562 35.934376Q188.2625 35.934376 187.34062 35.10625Q186.41875 34.2625 186.41875 32.965626Q186.41875 32.2 186.7625 31.575Q187.12187 30.95 187.68437 30.575Q188.24687 30.184376 188.95 29.98125Q189.46562 29.85625 190.5125 29.715626Q192.6375 29.465626 193.6375 29.121876Q193.65312 28.7625 193.65312 28.653126Q193.65312 27.590626 193.15312 27.1375Q192.48125 26.54375 191.15312 26.54375Q189.90312 26.54375 189.30937 26.98125Q188.73125 27.41875 188.45 28.528126L186.73125 28.29375Q186.96562 27.184376 187.49687 26.5125Q188.02812 25.825 189.04375 25.465626Q190.05937 25.090626 191.40312 25.090626Q192.73125 25.090626 193.55937 25.403126Q194.3875 25.715626 194.77812 26.2Q195.16875 26.66875 195.325 27.3875Q195.41875 27.840626 195.41875 29.0125L195.41875 31.35625Q195.41875 33.809376 195.52812 34.465626Q195.6375 35.10625 195.98125 35.7L194.1375 35.7Q193.87187 35.153126 193.79375 34.41875ZM193.6375 30.496876Q192.68437 30.8875 190.7625 31.153126Q189.68437 31.309376 189.23125 31.5125Q188.79375 31.7 188.54375 32.075Q188.29375 32.45 188.29375 32.91875Q188.29375 33.621876 188.825 34.090626Q189.35625 34.559376 190.3875 34.559376Q191.40312 34.559376 192.18437 34.121876Q192.98125 33.66875 193.35625 32.903126Q193.6375 32.29375 193.6375 31.1375L193.6375 30.496876ZM198.0125 39.66875L198.0125 25.325L199.62187 25.325L199.62187 26.66875Q200.18437 25.8875 200.8875 25.496876Q201.60625 25.090626 202.62187 25.090626Q203.95 25.090626 204.96562 25.778126Q205.98125 26.465626 206.49687 27.715626Q207.02812 28.95 207.02812 30.434376Q207.02812 32.028126 206.45 33.309376Q205.8875 34.575 204.79375 35.2625Q203.7 35.934376 202.49687 35.934376Q201.62187 35.934376 200.91875 35.559376Q200.23125 35.184376 199.77812 34.621876L199.77812 39.66875L198.0125 39.66875ZM199.60625 30.575Q199.60625 32.575 200.41875 33.528126Q201.23125 34.48125 202.3875 34.48125Q203.55937 34.48125 204.3875 33.496876Q205.23125 32.5125 205.23125 30.41875Q205.23125 28.45 204.40312 27.465626Q203.59062 26.465626 202.46562 26.465626Q201.34062 26.465626 200.46562 27.528126Q199.60625 28.575 199.60625 30.575ZM209.48125 35.7L209.48125 33.7L211.48125 33.7L211.48125 35.7Q211.48125 36.809376 211.09062 37.48125Q210.7 38.16875 209.85625 38.528126L209.35625 37.778126Q209.91875 37.54375 210.18437 37.059376Q210.45 36.590626 210.48125 35.7L209.48125 35.7ZM229.6375 25.325L229.6375 35.7L228.075 35.7L228.075 34.465626Q227.55937 35.246876 227.05937 35.54375Q226.3875 35.95 225.46562 35.95Q224.66875 35.95 224.04375 35.621876Q223.575 35.371876 222.99687 34.653126L222.99687 39.66875L221.2625 39.66875L221.2625 25.325L222.99687 25.325L222.99687 29.715626Q222.99687 32.121876 223.24687 32.825Q223.5125 33.528126 224.075 33.95Q224.65312 34.35625 225.3875 34.35625Q226.16875 34.35625 226.77812 33.934376Q227.40312 33.496876 227.65312 32.825Q227.91875 32.1375 227.91875 29.746876L227.91875 25.325L229.6375 25.325ZM231.30937 32.60625L233.05937 32.325Q233.2 33.371876 233.87187 33.934376Q234.54375 34.48125 235.74687 34.48125Q236.95 34.48125 237.52812 33.996876Q238.12187 33.496876 238.12187 32.840626Q238.12187 32.246876 237.60625 31.903126Q237.24687 31.66875 235.80937 31.309376Q233.87187 30.809376 233.12187 30.465626Q232.3875 30.10625 231.99687 29.48125Q231.60625 28.840626 231.60625 28.075Q231.60625 27.3875 231.91875 26.79375Q232.24687 26.2 232.79375 25.809376Q233.2 25.5125 233.90312 25.309376Q234.62187 25.090626 235.43437 25.090626Q236.65312 25.090626 237.575 25.45Q238.49687 25.79375 238.93437 26.403126Q239.37187 26.996876 239.54375 27.996876L237.825 28.23125Q237.7 27.434376 237.1375 26.996876Q236.575 26.54375 235.55937 26.54375Q234.34062 26.54375 233.825 26.95Q233.30937 27.340626 233.30937 27.871876Q233.30937 28.215626 233.52812 28.496876Q233.73125 28.778126 234.2 28.965626Q234.46562 29.059376 235.74687 29.403126Q237.62187 29.903126 238.35625 30.23125Q239.09062 30.54375 239.5125 31.153126Q239.93437 31.746876 239.93437 32.653126Q239.93437 33.528126 239.41875 34.309376Q238.90312 35.090626 237.93437 35.5125Q236.96562 35.934376 235.74687 35.934376Q233.73125 35.934376 232.66875 35.090626Q231.60625 34.246876 231.30937 32.60625ZM251.37187 39.903126Q249.91875 38.075 248.91875 35.621876Q247.91875 33.153126 247.91875 30.5125Q247.91875 28.184376 248.66875 26.059376Q249.54375 23.590626 251.37187 21.1375L252.6375 21.1375Q251.45 23.16875 251.075 24.04375Q250.48125 25.3875 250.1375 26.85625Q249.71562 28.684376 249.71562 30.528126Q249.71562 35.215626 252.6375 39.903126L251.37187 39.903126ZM254.98125 35.7L254.98125 21.3875L256.73126 21.3875L256.73126 35.7L254.98125 35.7ZM266.1219 32.35625L267.9344 32.590626Q267.5125 34.16875 266.34064 35.059376Q265.1844 35.934376 263.3719 35.934376Q261.10626 35.934376 259.7625 34.54375Q258.4344 33.1375 258.4344 30.60625Q258.4344 27.98125 259.77814 26.54375Q261.1219 25.090626 263.27814 25.090626Q265.35626 25.090626 266.66876 26.5125Q267.9969 27.91875 267.9969 30.496876Q267.9969 30.653126 267.98126 30.965626L260.2469 30.965626Q260.34064 32.66875 261.21564 33.575Q262.09064 34.48125 263.3875 34.48125Q264.35626 34.48125 265.02814 33.98125Q265.71564 33.465626 266.1219 32.35625ZM260.34064 29.5125L266.1375 29.5125Q266.02814 28.215626 265.48126 27.559376Q264.6375 26.54375 263.29376 26.54375Q262.09064 26.54375 261.2625 27.35625Q260.4344 28.153126 260.34064 29.5125ZM269.3094 32.60625L271.0594 32.325Q271.2 33.371876 271.8719 33.934376Q272.54376 34.48125 273.7469 34.48125Q274.95 34.48125 275.52814 33.996876Q276.1219 33.496876 276.1219 32.840626Q276.1219 32.246876 275.60626 31.903126Q275.2469 31.66875 273.8094 31.309376Q271.8719 30.809376 271.1219 30.465626Q270.3875 30.10625 269.9969 29.48125Q269.60626 28.840626 269.60626 28.075Q269.60626 27.3875 269.91876 26.79375Q270.2469 26.2 270.79376 25.809376Q271.2 25.5125 271.90314 25.309376Q272.6219 25.090626 273.4344 25.090626Q274.65314 25.090626 275.575 25.45Q276.4969 25.79375 276.9344 26.403126Q277.3719 26.996876 277.54376 27.996876L275.825 28.23125Q275.7 27.434376 275.1375 26.996876Q274.575 26.54375 273.5594 26.54375Q272.34064 26.54375 271.825 26.95Q271.3094 27.340626 271.3094 27.871876Q271.3094 28.215626 271.52814 28.496876Q271.73126 28.778126 272.2 28.965626Q272.46564 29.059376 273.7469 29.403126Q275.6219 29.903126 276.35626 30.23125Q277.09064 30.54375 277.5125 31.153126Q277.9344 31.746876 277.9344 32.653126Q277.9344 33.528126 277.41876 34.309376Q276.90314 35.090626 275.9344 35.5125Q274.96564 35.934376 273.7469 35.934376Q271.73126 35.934376 270.66876 35.090626Q269.60626 34.246876 269.3094 32.60625ZM279.3094 32.60625L281.0594 32.325Q281.2 33.371876 281.8719 33.934376Q282.54376 34.48125 283.7469 34.48125Q284.95 34.48125 285.52814 33.996876Q286.1219 33.496876 286.1219 32.840626Q286.1219 32.246876 285.60626 31.903126Q285.2469 31.66875 283.8094 31.309376Q281.8719 30.809376 281.1219 30.465626Q280.3875 30.10625 279.9969 29.48125Q279.60626 28.840626 279.60626 28.075Q279.60626 27.3875 279.91876 26.79375Q280.2469 26.2 280.79376 25.809376Q281.2 25.5125 281.90314 25.309376Q282.6219 25.090626 283.4344 25.090626Q284.65314 25.090626 285.575 25.45Q286.4969 25.79375 286.9344 26.403126Q287.3719 26.996876 287.54376 27.996876L285.825 28.23125Q285.7 27.434376 285.1375 26.996876Q284.575 26.54375 283.5594 26.54375Q282.34064 26.54375 281.825 26.95Q281.3094 27.340626 281.3094 27.871876Q281.3094 28.215626 281.52814 28.496876Q281.73126 28.778126 282.2 28.965626Q282.46564 29.059376 283.7469 29.403126Q285.6219 29.903126 286.35626 30.23125Q287.09064 30.54375 287.5125 31.153126Q287.9344 31.746876 287.9344 32.653126Q287.9344 33.528126 287.41876 34.309376Q286.90314 35.090626 285.9344 35.5125Q284.96564 35.934376 283.7469 35.934376Q281.73126 35.934376 280.66876 35.090626Q279.60626 34.246876 279.3094 32.60625ZM296.02814 23.403126L296.02814 21.3875L297.79376 21.3875L297.79376 23.403126L296.02814 23.403126ZM296.02814 35.7L296.02814 25.325L297.79376 25.325L297.79376 35.7L296.02814 35.7ZM299.3094 32.60625L301.0594 32.325Q301.2 33.371876 301.8719 33.934376Q302.54376 34.48125 303.7469 34.48125Q304.95 34.48125 305.52814 33.996876Q306.1219 33.496876 306.1219 32.840626Q306.1219 32.246876 305.60626 31.903126Q305.2469 31.66875 303.8094 31.309376Q301.8719 30.809376 301.1219 30.465626Q300.3875 30.10625 299.9969 29.48125Q299.60626 28.840626 299.60626 28.075Q299.60626 27.3875 299.91876 26.79375Q300.2469 26.2 300.79376 25.809376Q301.2 25.5125 301.90314 25.309376Q302.6219 25.090626 303.4344 25.090626Q304.65314 25.090626 305.575 25.45Q306.4969 25.79375 306.9344 26.403126Q307.3719 26.996876 307.54376 27.996876L305.825 28.23125Q305.7 27.434376 305.1375 26.996876Q304.575 26.54375 303.5594 26.54375Q302.34064 26.54375 301.825 26.95Q301.3094 27.340626 301.3094 27.871876Q301.3094 28.215626 301.52814 28.496876Q301.73126 28.778126 302.2 28.965626Q302.46564 29.059376 303.7469 29.403126Q305.6219 29.903126 306.35626 30.23125Q307.09064 30.54375 307.5125 31.153126Q307.9344 31.746876 307.9344 32.653126Q307.9344 33.528126 307.41876 34.309376Q306.90314 35.090626 305.9344 35.5125Q304.96564 35.934376 303.7469 35.934376Q301.73126 35.934376 300.66876 35.090626Q299.60626 34.246876 299.3094 32.60625ZM317.6375 35.7L316.0125 35.7L316.0125 21.3875L317.7625 21.3875L317.7625 26.496876Q318.8875 25.090626 320.60626 25.090626Q321.5594 25.090626 322.41876 25.48125Q323.27814 25.871876 323.825 26.575Q324.3719 27.2625 324.6844 28.246876Q324.9969 29.23125 324.9969 30.35625Q324.9969 33.028126 323.6844 34.48125Q322.3719 35.934376 320.52814 35.934376Q318.6844 35.934376 317.6375 34.403126L317.6375 35.7ZM317.6219 30.434376Q317.6219 32.29375 318.1219 33.1375Q318.96564 34.48125 320.3719 34.48125Q321.52814 34.48125 322.35626 33.48125Q323.2 32.48125 323.2 30.496876Q323.2 28.465626 322.3875 27.5125Q321.59064 26.54375 320.45 26.54375Q319.29376 26.54375 318.45 27.54375Q317.6219 28.54375 317.6219 30.434376ZM334.1219 32.35625L335.9344 32.590626Q335.5125 34.16875 334.34064 35.059376Q333.1844 35.934376 331.3719 35.934376Q329.10626 35.934376 327.7625 34.54375Q326.4344 33.1375 326.4344 30.60625Q326.4344 27.98125 327.77814 26.54375Q329.1219 25.090626 331.27814 25.090626Q333.35626 25.090626 334.66876 26.5125Q335.9969 27.91875 335.9969 30.496876Q335.9969 30.653126 335.98126 30.965626L328.2469 30.965626Q328.34064 32.66875 329.21564 33.575Q330.09064 34.48125 331.3875 34.48125Q332.35626 34.48125 333.02814 33.98125Q333.71564 33.465626 334.1219 32.35625ZM328.34064 29.5125L334.1375 29.5125Q334.02814 28.215626 333.48126 27.559376Q332.6375 26.54375 331.29376 26.54375Q330.09064 26.54375 329.2625 27.35625Q328.4344 28.153126 328.34064 29.5125ZM341.85626 34.121876L342.10626 35.684376Q341.3719 35.840626 340.77814 35.840626Q339.825 35.840626 339.29376 35.54375Q338.77814 35.23125 338.5594 34.746876Q338.34064 34.246876 338.34064 32.66875L338.34064 26.7L337.0594 26.7L337.0594 25.325L338.34064 25.325L338.34064 22.7625L340.09064 21.7L340.09064 25.325L341.85626 25.325L341.85626 26.7L340.09064 26.7L340.09064 32.7625Q340.09064 33.5125 340.1844 33.73125Q340.27814 33.934376 340.48126 34.075Q340.7 34.2 341.09064 34.2Q341.3719 34.2 341.85626 34.121876ZM347.85626 34.121876L348.10626 35.684376Q347.3719 35.840626 346.77814 35.840626Q345.825 35.840626 345.29376 35.54375Q344.77814 35.23125 344.5594 34.746876Q344.34064 34.246876 344.34064 32.66875L344.34064 26.7L343.0594 26.7L343.0594 25.325L344.34064 25.325L344.34064 22.7625L346.09064 21.7L346.09064 25.325L347.85626 25.325L347.85626 26.7L346.09064 26.7L346.09064 32.7625Q346.09064 33.5125 346.1844 33.73125Q346.27814 33.934376 346.48126 34.075Q346.7 34.2 347.09064 34.2Q347.3719 34.2 347.85626 34.121876ZM357.1219 32.35625L358.9344 32.590626Q358.5125 34.16875 357.34064 35.059376Q356.1844 35.934376 354.3719 35.934376Q352.10626 35.934376 350.7625 34.54375Q349.4344 33.1375 349.4344 30.60625Q349.4344 27.98125 350.77814 26.54375Q352.1219 25.090626 354.27814 25.090626Q356.35626 25.090626 357.66876 26.5125Q358.9969 27.91875 358.9969 30.496876Q358.9969 30.653126 358.98126 30.965626L351.2469 30.965626Q351.34064 32.66875 352.21564 33.575Q353.09064 34.48125 354.3875 34.48125Q355.35626 34.48125 356.02814 33.98125Q356.71564 33.465626 357.1219 32.35625ZM351.34064 29.5125L357.1375 29.5125Q357.02814 28.215626 356.48126 27.559376Q355.6375 26.54375 354.29376 26.54375Q353.09064 26.54375 352.2625 27.35625Q351.4344 28.153126 351.34064 29.5125ZM360.9969 35.7L360.9969 25.325L362.575 25.325L362.575 26.903126Q363.1844 25.79375 363.7 25.45Q364.21564 25.090626 364.825 25.090626Q365.71564 25.090626 366.6375 25.653126L366.02814 27.29375Q365.3875 26.903126 364.7469 26.903126Q364.16876 26.903126 363.7 27.2625Q363.2469 27.60625 363.04376 28.215626Q362.7625 29.153126 362.7625 30.2625L362.7625 35.7L360.9969 35.7ZM369.16876 39.903126L367.91876 39.903126Q370.825 35.215626 370.825 30.528126Q370.825 28.684376 370.41876 26.8875Q370.075 25.41875 369.48126 24.075Q369.10626 23.184376 367.91876 21.1375L369.16876 21.1375Q371.0125 23.590626 371.8875 26.059376Q372.6375 28.184376 372.6375 30.5125Q372.6375 33.153126 371.6219 35.621876Q370.6219 38.075 369.16876 39.903126Z" fill-rule="nonzero"/></svg>