<svg version="1.1" viewBox="0.0 0.0 417.0 334.0" fill="none" stroke="none" stroke-linecap="square" stroke-miterlimit="10" width="417" height="334" xmlns:xlink="http://www.w3.org/1999/xlink" xmlns="http://www.w3.org/2000/svg"><path fill="#ffffff" d="M0 0L417.0 0L417.0 334.0L0 334.0L0 0Z" fill-rule="nonzero"/><path stroke="#333333" stroke-width="1.0" stroke-linecap="butt" d="M43.5 265.5L400.5 265.5" fill-rule="nonzero"/><path stroke="#cccccc" stroke-width="1.0" stroke-linecap="butt" d="M43.5 219.5L400.5 219.5" fill-rule="nonzero"/><path stroke="#cccccc" stroke-width="1.0" stroke-linecap="butt" d="M43.5 174.5L400.5 174.5" fill-rule="nonzero"/><path stroke="#cccccc" stroke-width="1.0" stroke-linecap="butt" d="M43.5 129.5L400.5 129.5" fill-rule="nonzero"/><path stroke="#cccccc" stroke-width="1.0" stroke-linecap="butt" d="M43.5 83.5L400.5 83.5" fill-rule="nonzero"/><clipPath id="id_0"><path d="M43.7 83.96667L400.3 83.96667L400.3 265.3L43.7 265.3L43.7 83.96667Z" clip-rule="nonzero"/></clipPath><path stroke="#000000" stroke-width="2.0" stroke-linecap="butt" stroke-opacity="0.0" clip-path="url(#id_0)" d="M145.0 265.0L98.0 265.0L98.0 226.0C98.0 224.89543 98.89543 224.0 100.0 224.0L143.0 224.0C144.10457 224.0 145.0 224.89543 145.0 226.0Z" fill-rule="nonzero"/><path fill="#4285f4" clip-path="url(#id_0)" d="M145.0 265.0L98.0 265.0L98.0 226.0C98.0 224.89543 98.89543 224.0 100.0 224.0L143.0 224.0C144.10457 224.0 145.0 224.89543 145.0 226.0Z" fill-rule="nonzero"/><path stroke="#000000" stroke-width="2.0" stroke-linecap="butt" stroke-opacity="0.0" clip-path="url(#id_0)" d="M297.0 265.0L250.0 265.0L250.0 170.0C250.0 168.89543 250.89543 168.0 252.0 168.0L295.0 168.0C296.10458 168.0 297.0 168.89543 297.0 170.0Z" fill-rule="nonzero"/><path fill="#4285f4" clip-path="url(#id_0)" d="M297.0 265.0L250.0 265.0L250.0 170.0C250.0 168.89543 250.89543 168.0 252.0 168.0L295.0 168.0C296.10458 168.0 297.0 168.89543 297.0 170.0Z" fill-rule="nonzero"/><path stroke="#000000" stroke-width="2.0" stroke-linecap="butt" stroke-opacity="0.0" clip-path="url(#id_0)" d="M194.0 265.0L147.0 265.0L147.0 201.0C147.0 199.89543 147.89543 199.0 149.0 199.0L192.0 199.0C193.10457 199.0 194.0 199.89543 194.0 201.0Z" fill-rule="nonzero"/><path fill="#ea4335" clip-path="url(#id_0)" d="M194.0 265.0L147.0 265.0L147.0 201.0C147.0 199.89543 147.89543 199.0 149.0 199.0L192.0 199.0C193.10457 199.0 194.0 199.89543 194.0 201.0Z" fill-rule="nonzero"/><path stroke="#000000" stroke-width="2.0" stroke-linecap="butt" stroke-opacity="0.0" clip-path="url(#id_0)" d="M346.0 265.0L299.0 265.0L299.0 110.0C299.0 108.89543 299.89542 108.0 301.0 108.0L344.0 108.0C345.10458 108.0 346.0 108.89543 346.0 110.0Z" fill-rule="nonzero"/><path fill="#ea4335" clip-path="url(#id_0)" d="M346.0 265.0L299.0 265.0L299.0 110.0C299.0 108.89543 299.89542 108.0 301.0 108.0L344.0 108.0C345.10458 108.0 346.0 108.89543 346.0 110.0Z" fill-rule="nonzero"/><path fill="#000000" d="M199.92188 314.3L199.92188 305.70624L203.17188 305.70624Q204.01562 305.70624 204.46875 305.78436Q205.10938 305.89374 205.53125 306.1906Q205.96875 306.4875 206.21875 307.01874Q206.48438 307.55 206.48438 308.1906Q206.48438 309.28436 205.78125 310.05Q205.09375 310.8 203.26562 310.8L201.0625 310.8L201.0625 314.3L199.92188 314.3ZM201.0625 309.8L203.28125 309.8Q204.39062 309.8 204.84375 309.39374Q205.3125 308.97186 205.3125 308.22186Q205.3125 307.6906 205.03125 307.3156Q204.76562 306.925 204.32812 306.8Q204.03125 306.72186 203.26562 306.72186L201.0625 306.72186L201.0625 309.8ZM207.76562 314.3L207.76562 305.70624L208.82812 305.70624L208.82812 314.3L207.76562 314.3ZM214.85938 313.53436Q214.26562 314.03436 213.71875 314.2375Q213.1875 314.4406 212.5625 314.4406Q211.53125 314.4406 210.98438 313.9406Q210.4375 313.4406 210.4375 312.65936Q210.4375 312.20624 210.64062 311.83124Q210.84375 311.4406 211.1875 311.22186Q211.53125 310.9875 211.95312 310.8781Q212.25 310.78436 212.89062 310.70624Q214.15625 310.5656 214.76562 310.34686Q214.76562 310.1281 214.76562 310.08124Q214.76562 309.425 214.46875 309.15936Q214.0625 308.8156 213.26562 308.8156Q212.53125 308.8156 212.17188 309.08124Q211.8125 309.33124 211.64062 309.9875L210.60938 309.84686Q210.75 309.1906 211.07812 308.78436Q211.40625 308.3781 212.01562 308.15936Q212.625 307.9406 213.42188 307.9406Q214.21875 307.9406 214.71875 308.1281Q215.21875 308.3156 215.45312 308.59686Q215.6875 308.8781 215.78125 309.3156Q215.82812 309.58124 215.82812 310.28436L215.82812 311.6906Q215.82812 313.15936 215.89062 313.55Q215.96875 313.9406 216.17188 314.3L215.0625 314.3Q214.90625 313.97186 214.85938 313.53436ZM214.76562 311.175Q214.1875 311.40936 213.04688 311.58124Q212.39062 311.675 212.125 311.8Q211.85938 311.90936 211.70312 312.1281Q211.5625 312.34686 211.5625 312.6281Q211.5625 313.05 211.875 313.33124Q212.20312 313.6125 212.8125 313.6125Q213.42188 313.6125 213.89062 313.34686Q214.375 313.08124 214.59375 312.6125Q214.76562 312.2531 214.76562 311.5656L214.76562 311.175ZM220.09375 313.3625L220.25 314.28436Q219.79688 314.3781 219.45312 314.3781Q218.875 314.3781 218.5625 314.20624Q218.25 314.01874 218.10938 313.72186Q217.98438 313.425 217.98438 312.47186L217.98438 308.89374L217.21875 308.89374L217.21875 308.08124L217.98438 308.08124L217.98438 306.53436L219.03125 305.90936L219.03125 308.08124L220.09375 308.08124L220.09375 308.89374L219.03125 308.89374L219.03125 312.53436Q219.03125 312.9875 219.07812 313.1125Q219.14062 313.2375 219.26562 313.3156Q219.39062 313.39374 219.625 313.39374Q219.8125 313.39374 220.09375 313.3625ZM221.04688 314.3L221.04688 308.89374L220.10938 308.89374L220.10938 308.08124L221.04688 308.08124L221.04688 307.40936Q221.04688 306.78436 221.15625 306.4875Q221.3125 306.0656 221.6875 305.8156Q222.07812 305.5656 222.76562 305.5656Q223.21875 305.5656 223.75 305.675L223.59375 306.58124Q223.26562 306.53436 222.96875 306.53436Q222.48438 306.53436 222.28125 306.7375Q222.09375 306.9406 222.09375 307.5031L222.09375 308.08124L223.3125 308.08124L223.3125 308.89374L222.09375 308.89374L222.09375 314.3L221.04688 314.3ZM223.40625 311.1906Q223.40625 309.45624 224.35938 308.6281Q225.15625 307.9406 226.3125 307.9406Q227.59375 307.9406 228.40625 308.78436Q229.23438 309.6125 229.23438 311.09686Q229.23438 312.3 228.875 312.9875Q228.51562 313.675 227.8125 314.0656Q227.125 314.4406 226.3125 314.4406Q225.01562 314.4406 224.20312 313.6125Q223.40625 312.76874 223.40625 311.1906ZM224.48438 311.1906Q224.48438 312.3781 225.0 312.97186Q225.53125 313.5656 226.3125 313.5656Q227.10938 313.5656 227.625 312.97186Q228.14062 312.3781 228.14062 311.15936Q228.14062 310.0031 227.60938 309.40936Q227.09375 308.8156 226.3125 308.8156Q225.53125 308.8156 225.0 309.40936Q224.48438 309.9875 224.48438 311.1906ZM230.78125 314.3L230.78125 308.08124L231.73438 308.08124L231.73438 309.01874Q232.09375 308.3625 232.39062 308.15936Q232.70312 307.9406 233.07812 307.9406Q233.60938 307.9406 234.15625 308.26874L233.79688 309.2531Q233.40625 309.01874 233.03125 309.01874Q232.67188 309.01874 232.39062 309.2375Q232.125 309.4406 232.01562 309.8156Q231.82812 310.3781 231.82812 311.03436L231.82812 314.3L230.78125 314.3ZM234.79688 314.3L234.79688 308.08124L235.73438 308.08124L235.73438 308.95624Q236.03125 308.4875 236.51562 308.22186Q237.0 307.9406 237.625 307.9406Q238.3125 307.9406 238.75 308.22186Q239.20312 308.5031 239.375 309.01874Q240.125 307.9406 241.29688 307.9406Q242.23438 307.9406 242.71875 308.45624Q243.21875 308.95624 243.21875 310.03436L243.21875 314.3L242.17188 314.3L242.17188 310.3781Q242.17188 309.7531 242.0625 309.47186Q241.96875 309.1906 241.70312 309.01874Q241.4375 308.84686 241.0625 308.84686Q240.40625 308.84686 239.96875 309.28436Q239.54688 309.72186 239.54688 310.6906L239.54688 314.3L238.48438 314.3L238.48438 310.2531Q238.48438 309.55 238.21875 309.20624Q237.96875 308.84686 237.39062 308.84686Q236.9375 308.84686 236.5625 309.08124Q236.1875 309.3156 236.01562 309.76874Q235.84375 310.22186 235.84375 311.0656L235.84375 314.3L234.79688 314.3Z" fill-rule="nonzero"/><path fill="#000000" d="M31.2 265.0656Q31.2 263.53436 31.5125 262.6125Q31.825 261.675 32.434376 261.175Q33.059376 260.675 33.996876 260.675Q34.684376 260.675 35.2 260.95624Q35.73125 261.2375 36.075 261.76874Q36.41875 262.28436 36.60625 263.03436Q36.79375 263.78436 36.79375 265.0656Q36.79375 266.58124 36.48125 267.5031Q36.184376 268.425 35.559376 268.9406Q34.95 269.4406 33.996876 269.4406Q32.7625 269.4406 32.04375 268.55Q31.2 267.4875 31.2 265.0656ZM32.278126 265.0656Q32.278126 267.175 32.778126 267.8781Q33.278126 268.58124 33.996876 268.58124Q34.73125 268.58124 35.215626 267.8781Q35.715626 267.175 35.715626 265.0656Q35.715626 262.9406 35.215626 262.2531Q34.73125 261.55 33.98125 261.55Q33.2625 261.55 32.825 262.15936Q32.278126 262.9406 32.278126 265.0656Z" fill-rule="nonzero"/><path fill="#000000" d="M22.746876 222.95103L22.746876 223.96666L17.059376 223.96666Q17.059376 223.59166 17.184376 223.23228Q17.403126 222.65416 17.871876 222.09166Q18.35625 221.52916 19.2625 220.79478Q20.66875 219.63853 21.153126 218.96666Q21.653126 218.29478 21.653126 217.70103Q21.653126 217.07603 21.2 216.65416Q20.746876 216.21666 20.028126 216.21666Q19.2625 216.21666 18.809376 216.66978Q18.35625 217.12291 18.340626 217.93541L17.2625 217.82603Q17.371876 216.60728 18.090626 215.98228Q18.825 215.34166 20.059376 215.34166Q21.29375 215.34166 22.0125 216.02916Q22.73125 216.71666 22.73125 217.73228Q22.73125 218.24791 22.5125 218.74791Q22.309376 219.23228 21.809376 219.79478Q21.325 220.34166 20.2 221.29478Q19.246876 222.09166 18.965626 222.38853Q18.7 222.66978 18.528126 222.95103L22.746876 222.95103ZM24.2 219.73228Q24.2 218.20103 24.5125 217.27916Q24.825 216.34166 25.434376 215.84166Q26.059376 215.34166 26.996876 215.34166Q27.684376 215.34166 28.2 215.62291Q28.73125 215.90416 29.075 216.43541Q29.41875 216.95103 29.60625 217.70103Q29.79375 218.45103 29.79375 219.73228Q29.79375 221.24791 29.48125 222.16978Q29.184376 223.09166 28.559376 223.60728Q27.95 224.10728 26.996876 224.10728Q25.7625 224.10728 25.04375 223.21666Q24.2 222.15416 24.2 219.73228ZM25.278126 219.73228Q25.278126 221.84166 25.778126 222.54478Q26.278126 223.24791 26.996876 223.24791Q27.73125 223.24791 28.215626 222.54478Q28.715626 221.84166 28.715626 219.73228Q28.715626 217.60728 28.215626 216.91978Q27.73125 216.21666 26.98125 216.21666Q26.2625 216.21666 25.825 216.82603Q25.278126 217.60728 25.278126 219.73228ZM31.2 219.73228Q31.2 218.20103 31.5125 217.27916Q31.825 216.34166 32.434376 215.84166Q33.059376 215.34166 33.996876 215.34166Q34.684376 215.34166 35.2 215.62291Q35.73125 215.90416 36.075 216.43541Q36.41875 216.95103 36.60625 217.70103Q36.79375 218.45103 36.79375 219.73228Q36.79375 221.24791 36.48125 222.16978Q36.184376 223.09166 35.559376 223.60728Q34.95 224.10728 33.996876 224.10728Q32.7625 224.10728 32.04375 223.21666Q31.2 222.15416 31.2 219.73228ZM32.278126 219.73228Q32.278126 221.84166 32.778126 222.54478Q33.278126 223.24791 33.996876 223.24791Q34.73125 223.24791 35.215626 222.54478Q35.715626 221.84166 35.715626 219.73228Q35.715626 217.60728 35.215626 216.91978Q34.73125 216.21666 33.98125 216.21666Q33.2625 216.21666 32.825 216.82603Q32.278126 217.60728 32.278126 219.73228Z" fill-rule="nonzero"/><path fill="#000000" d="M20.575 178.63333L20.575 176.57083L16.85625 176.57083L16.85625 175.60208L20.778126 170.03958L21.6375 170.03958L21.6375 175.60208L22.79375 175.60208L22.79375 176.57083L21.6375 176.57083L21.6375 178.63333L20.575 178.63333ZM20.575 175.60208L20.575 171.7427L17.8875 175.60208L20.575 175.60208ZM24.2 174.39896Q24.2 172.8677 24.5125 171.94583Q24.825 171.00833 25.434376 170.50833Q26.059376 170.00833 26.996876 170.00833Q27.684376 170.00833 28.2 170.28958Q28.73125 170.57083 29.075 171.10208Q29.41875 171.6177 29.60625 172.3677Q29.79375 173.1177 29.79375 174.39896Q29.79375 175.91458 29.48125 176.83646Q29.184376 177.75833 28.559376 178.27396Q27.95 178.77396 26.996876 178.77396Q25.7625 178.77396 25.04375 177.88333Q24.2 176.82083 24.2 174.39896ZM25.278126 174.39896Q25.278126 176.50833 25.778126 177.21146Q26.278126 177.91458 26.996876 177.91458Q27.73125 177.91458 28.215626 177.21146Q28.715626 176.50833 28.715626 174.39896Q28.715626 172.27396 28.215626 171.58646Q27.73125 170.88333 26.98125 170.88333Q26.2625 170.88333 25.825 171.4927Q25.278126 172.27396 25.278126 174.39896ZM31.2 174.39896Q31.2 172.8677 31.5125 171.94583Q31.825 171.00833 32.434376 170.50833Q33.059376 170.00833 33.996876 170.00833Q34.684376 170.00833 35.2 170.28958Q35.73125 170.57083 36.075 171.10208Q36.41875 171.6177 36.60625 172.3677Q36.79375 173.1177 36.79375 174.39896Q36.79375 175.91458 36.48125 176.83646Q36.184376 177.75833 35.559376 178.27396Q34.95 178.77396 33.996876 178.77396Q32.7625 178.77396 32.04375 177.88333Q31.2 176.82083 31.2 174.39896ZM32.278126 174.39896Q32.278126 176.50833 32.778126 177.21146Q33.278126 177.91458 33.996876 177.91458Q34.73125 177.91458 35.215626 177.21146Q35.715626 176.50833 35.715626 174.39896Q35.715626 172.27396 35.215626 171.58646Q34.73125 170.88333 33.98125 170.88333Q33.2625 170.88333 32.825 171.4927Q32.278126 172.27396 32.278126 174.39896Z" fill-rule="nonzero"/><path fill="#000000" d="M22.66875 126.81563L21.621876 126.89375Q21.48125 126.26875 21.23125 125.9875Q20.79375 125.53438 20.16875 125.53438Q19.66875 125.53438 19.278126 125.81563Q18.79375 126.19063 18.496876 126.89375Q18.215626 127.58125 18.2 128.8625Q18.575 128.28438 19.121876 128.00313Q19.684376 127.72188 20.29375 127.72188Q21.340626 127.72188 22.075 128.50313Q22.825 129.28438 22.825 130.50313Q22.825 131.31563 22.465626 132.01875Q22.121876 132.70625 21.5125 133.08125Q20.903126 133.44063 20.1375 133.44063Q18.809376 133.44063 17.98125 132.47188Q17.153126 131.50313 17.153126 129.28438Q17.153126 126.78438 18.075 125.65938Q18.871876 124.675 20.23125 124.675Q21.246876 124.675 21.8875 125.25313Q22.54375 125.81563 22.66875 126.81563ZM18.371876 130.51875Q18.371876 131.06563 18.590626 131.56563Q18.825 132.05 19.23125 132.31563Q19.653126 132.58125 20.121876 132.58125Q20.778126 132.58125 21.2625 132.05Q21.746876 131.50313 21.746876 130.58125Q21.746876 129.69063 21.2625 129.175Q20.79375 128.65938 20.075 128.65938Q19.35625 128.65938 18.85625 129.175Q18.371876 129.69063 18.371876 130.51875ZM24.2 129.06563Q24.2 127.53438 24.5125 126.6125Q24.825 125.675 25.434376 125.175Q26.059376 124.675 26.996876 124.675Q27.684376 124.675 28.2 124.95625Q28.73125 125.2375 29.075 125.76875Q29.41875 126.28438 29.60625 127.03438Q29.79375 127.78438 29.79375 129.06563Q29.79375 130.58125 29.48125 131.50313Q29.184376 132.425 28.559376 132.94063Q27.95 133.44063 26.996876 133.44063Q25.7625 133.44063 25.04375 132.55Q24.2 131.4875 24.2 129.06563ZM25.278126 129.06563Q25.278126 131.175 25.778126 131.87813Q26.278126 132.58125 26.996876 132.58125Q27.73125 132.58125 28.215626 131.87813Q28.715626 131.175 28.715626 129.06563Q28.715626 126.94063 28.215626 126.25313Q27.73125 125.55 26.98125 125.55Q26.2625 125.55 25.825 126.15938Q25.278126 126.94063 25.278126 129.06563ZM31.2 129.06563Q31.2 127.53438 31.5125 126.6125Q31.825 125.675 32.434376 125.175Q33.059376 124.675 33.996876 124.675Q34.684376 124.675 35.2 124.95625Q35.73125 125.2375 36.075 125.76875Q36.41875 126.28438 36.60625 127.03438Q36.79375 127.78438 36.79375 129.06563Q36.79375 130.58125 36.48125 131.50313Q36.184376 132.425 35.559376 132.94063Q34.95 133.44063 33.996876 133.44063Q32.7625 133.44063 32.04375 132.55Q31.2 131.4875 31.2 129.06563ZM32.278126 129.06563Q32.278126 131.175 32.778126 131.87813Q33.278126 132.58125 33.996876 132.58125Q34.73125 132.58125 35.215626 131.87813Q35.715626 131.175 35.715626 129.06563Q35.715626 126.94063 35.215626 126.25313Q34.73125 125.55 33.98125 125.55Q33.2625 125.55 32.825 126.15938Q32.278126 126.94063 32.278126 129.06563Z" fill-rule="nonzero"/><path fill="#000000" d="M18.825 83.31042Q18.16875 83.06042 17.840626 82.62292Q17.528126 82.16979 17.528126 81.56042Q17.528126 80.62292 18.2 79.98229Q18.8875 79.34167 19.996876 79.34167Q21.121876 79.34167 21.809376 79.99792Q22.496876 80.65417 22.496876 81.59167Q22.496876 82.18542 22.184376 82.62292Q21.871876 83.06042 21.23125 83.31042Q22.028126 83.56042 22.434376 84.13854Q22.840626 84.71667 22.840626 85.51354Q22.840626 86.60729 22.059376 87.35729Q21.29375 88.10729 20.0125 88.10729Q18.746876 88.10729 17.965626 87.35729Q17.184376 86.60729 17.184376 85.48229Q17.184376 84.63854 17.60625 84.07604Q18.04375 83.51354 18.825 83.31042ZM18.60625 81.51354Q18.60625 82.12292 18.996876 82.51354Q19.403126 82.90417 20.028126 82.90417Q20.6375 82.90417 21.028126 82.52917Q21.41875 82.13854 21.41875 81.57604Q21.41875 80.99792 21.0125 80.60729Q20.60625 80.20104 20.0125 80.20104Q19.403126 80.20104 18.996876 80.59167Q18.60625 80.98229 18.60625 81.51354ZM18.278126 85.48229Q18.278126 85.93542 18.48125 86.35729Q18.7 86.77917 19.121876 87.01354Q19.54375 87.24792 20.028126 87.24792Q20.778126 87.24792 21.2625 86.76354Q21.7625 86.27917 21.7625 85.52917Q21.7625 84.76354 21.2625 84.26354Q20.7625 83.76354 19.996876 83.76354Q19.246876 83.76354 18.7625 84.26354Q18.278126 84.74792 18.278126 85.48229ZM24.2 83.73229Q24.2 82.20104 24.5125 81.27917Q24.825 80.34167 25.434376 79.84167Q26.059376 79.34167 26.996876 79.34167Q27.684376 79.34167 28.2 79.62292Q28.73125 79.90417 29.075 80.43542Q29.41875 80.95104 29.60625 81.70104Q29.79375 82.45104 29.79375 83.73229Q29.79375 85.24792 29.48125 86.16979Q29.184376 87.09167 28.559376 87.60729Q27.95 88.10729 26.996876 88.10729Q25.7625 88.10729 25.04375 87.21667Q24.2 86.15417 24.2 83.73229ZM25.278126 83.73229Q25.278126 85.84167 25.778126 86.54479Q26.278126 87.24792 26.996876 87.24792Q27.73125 87.24792 28.215626 86.54479Q28.715626 85.84167 28.715626 83.73229Q28.715626 81.60729 28.215626 80.91979Q27.73125 80.21667 26.98125 80.21667Q26.2625 80.21667 25.825 80.82604Q25.278126 81.60729 25.278126 83.73229ZM31.2 83.73229Q31.2 82.20104 31.5125 81.27917Q31.825 80.34167 32.434376 79.84167Q33.059376 79.34167 33.996876 79.34167Q34.684376 79.34167 35.2 79.62292Q35.73125 79.90417 36.075 80.43542Q36.41875 80.95104 36.60625 81.70104Q36.79375 82.45104 36.79375 83.73229Q36.79375 85.24792 36.48125 86.16979Q36.184376 87.09167 35.559376 87.60729Q34.95 88.10729 33.996876 88.10729Q32.7625 88.10729 32.04375 87.21667Q31.2 86.15417 31.2 83.73229ZM32.278126 83.73229Q32.278126 85.84167 32.778126 86.54479Q33.278126 87.24792 33.996876 87.24792Q34.73125 87.24792 35.215626 86.54479Q35.715626 85.84167 35.715626 83.73229Q35.715626 81.60729 35.215626 80.91979Q34.73125 80.21667 33.98125 80.21667Q33.2625 80.21667 32.825 80.82604Q32.278126 81.60729 32.278126 83.73229Z" fill-rule="nonzero"/><path fill="#000000" d="M89.01829 282.3L89.01829 273.70624L90.73704 273.70624L92.76829 279.78436Q93.04954 280.64374 93.17454 281.0656Q93.31516 280.59686 93.62766 279.6906L95.69016 273.70624L97.22141 273.70624L97.22141 282.3L96.12766 282.3L96.12766 275.1125L93.62766 282.3L92.59641 282.3L90.11204 274.9875L90.11204 282.3L89.01829 282.3ZM98.00266 282.3L98.00266 273.70624L101.23704 273.70624Q102.22141 273.70624 102.81516 273.97186Q103.40891 274.2375 103.73704 274.78436Q104.08079 275.3156 104.08079 275.90936Q104.08079 276.45624 103.78391 276.9406Q103.48704 277.425 102.87766 277.72186Q103.65891 277.95624 104.06516 278.51874Q104.48704 279.0656 104.48704 279.8156Q104.48704 280.40936 104.23704 280.9406Q103.98704 281.45624 103.61204 281.7375Q103.23704 282.01874 102.65891 282.15936Q102.09641 282.3 101.28391 282.3L98.00266 282.3ZM99.14329 277.3156L101.00266 277.3156Q101.75266 277.3156 102.08079 277.22186Q102.51829 277.09686 102.73704 276.8Q102.95579 276.4875 102.95579 276.03436Q102.95579 275.6125 102.75266 275.28436Q102.54954 274.95624 102.15891 274.84686Q101.78391 274.72186 100.86204 274.72186L99.14329 274.72186L99.14329 277.3156ZM99.14329 281.28436L101.28391 281.28436Q101.83079 281.28436 102.04954 281.2375Q102.45579 281.175 102.70579 281.01874Q102.97141 280.84686 103.14329 280.53436Q103.31516 280.22186 103.31516 279.8156Q103.31516 279.33124 103.06516 278.97186Q102.83079 278.6125 102.39329 278.47186Q101.95579 278.33124 101.12766 278.33124L99.14329 278.33124L99.14329 281.28436ZM109.04954 282.3L109.04954 273.70624L112.29954 273.70624Q113.14329 273.70624 113.59641 273.78436Q114.23704 273.89374 114.65891 274.1906Q115.09641 274.4875 115.34641 275.01874Q115.61204 275.55 115.61204 276.1906Q115.61204 277.28436 114.90891 278.05Q114.22141 278.8 112.39329 278.8L110.19016 278.8L110.19016 282.3L109.04954 282.3ZM110.19016 277.8L112.40891 277.8Q113.51829 277.8 113.97141 277.39374Q114.44016 276.97186 114.44016 276.22186Q114.44016 275.6906 114.15891 275.3156Q113.89329 274.925 113.45579 274.8Q113.15891 274.72186 112.39329 274.72186L110.19016 274.72186L110.19016 277.8ZM116.90891 282.3L116.90891 276.08124L117.86204 276.08124L117.86204 277.01874Q118.22141 276.3625 118.51829 276.15936Q118.83079 275.9406 119.20579 275.9406Q119.73704 275.9406 120.28391 276.26874L119.92454 277.2531Q119.53391 277.01874 119.15891 277.01874Q118.79954 277.01874 118.51829 277.2375Q118.25266 277.4406 118.14329 277.8156Q117.95579 278.3781 117.95579 279.03436L117.95579 282.3L116.90891 282.3ZM120.53391 279.1906Q120.53391 277.45624 121.48704 276.6281Q122.28391 275.9406 123.44016 275.9406Q124.72141 275.9406 125.53391 276.78436Q126.36204 277.6125 126.36204 279.09686Q126.36204 280.3 126.00266 280.9875Q125.64329 281.675 124.94016 282.0656Q124.25266 282.4406 123.44016 282.4406Q122.14329 282.4406 121.33079 281.6125Q120.53391 280.76874 120.53391 279.1906ZM121.61204 279.1906Q121.61204 280.3781 122.12766 280.97186Q122.65891 281.5656 123.44016 281.5656Q124.23704 281.5656 124.75266 280.97186Q125.26829 280.3781 125.26829 279.15936Q125.26829 278.0031 124.73704 277.40936Q124.22141 276.8156 123.44016 276.8156Q122.65891 276.8156 122.12766 277.40936Q121.61204 277.9875 121.61204 279.1906ZM131.01828 282.3L131.01828 273.70624L132.73703 273.70624L134.76828 279.78436Q135.04953 280.64374 135.17453 281.0656Q135.31516 280.59686 135.62766 279.6906L137.69016 273.70624L139.2214 273.70624L139.2214 282.3L138.12766 282.3L138.12766 275.1125L135.62766 282.3L134.5964 282.3L132.11203 274.9875L132.11203 282.3L131.01828 282.3ZM139.62766 280.03436L140.69016 279.89374Q140.86203 280.78436 141.29953 281.1906Q141.73703 281.58124 142.36203 281.58124Q143.11203 281.58124 143.62766 281.0656Q144.14328 280.55 144.14328 279.78436Q144.14328 279.0656 143.6589 278.59686Q143.19016 278.1125 142.45578 278.1125Q142.1589 278.1125 141.70578 278.2375L141.83078 277.3Q141.94016 277.3156 142.00266 277.3156Q142.67453 277.3156 143.20578 276.97186Q143.75266 276.6125 143.75266 275.8781Q143.75266 275.3 143.36203 274.925Q142.9714 274.53436 142.3464 274.53436Q141.73703 274.53436 141.31516 274.925Q140.9089 275.3156 140.79953 276.08124L139.73703 275.89374Q139.92453 274.84686 140.61203 274.26874Q141.29953 273.675 142.31516 273.675Q143.01828 273.675 143.61203 273.9875Q144.20578 274.28436 144.51828 274.8Q144.83078 275.3156 144.83078 275.90936Q144.83078 276.45624 144.5339 276.925Q144.23703 277.3781 143.6589 277.64374Q144.4089 277.8156 144.83078 278.3781Q145.25266 278.925 145.25266 279.76874Q145.25266 280.89374 144.42453 281.675Q143.61203 282.45624 142.36203 282.45624Q141.23703 282.45624 140.48703 281.78436Q139.73703 281.09686 139.62766 280.03436ZM150.04953 282.3L150.04953 273.70624L153.29953 273.70624Q154.14328 273.70624 154.5964 273.78436Q155.23703 273.89374 155.6589 274.1906Q156.0964 274.4875 156.3464 275.01874Q156.61203 275.55 156.61203 276.1906Q156.61203 277.28436 155.9089 278.05Q155.2214 278.8 153.39328 278.8L151.19016 278.8L151.19016 282.3L150.04953 282.3ZM151.19016 277.8L153.4089 277.8Q154.51828 277.8 154.9714 277.39374Q155.44016 276.97186 155.44016 276.22186Q155.44016 275.6906 155.1589 275.3156Q154.89328 274.925 154.45578 274.8Q154.1589 274.72186 153.39328 274.72186L151.19016 274.72186L151.19016 277.8ZM157.9089 282.3L157.9089 276.08124L158.86203 276.08124L158.86203 277.01874Q159.2214 276.3625 159.51828 276.15936Q159.83078 275.9406 160.20578 275.9406Q160.73703 275.9406 161.2839 276.26874L160.92453 277.2531Q160.5339 277.01874 160.1589 277.01874Q159.79953 277.01874 159.51828 277.2375Q159.25266 277.4406 159.14328 277.8156Q158.95578 278.3781 158.95578 279.03436L158.95578 282.3L157.9089 282.3ZM161.5339 279.1906Q161.5339 277.45624 162.48703 276.6281Q163.2839 275.9406 164.44016 275.9406Q165.7214 275.9406 166.5339 276.78436Q167.36203 277.6125 167.36203 279.09686Q167.36203 280.3 167.00266 280.9875Q166.64328 281.675 165.94016 282.0656Q165.25266 282.4406 164.44016 282.4406Q163.14328 282.4406 162.33078 281.6125Q161.5339 280.76874 161.5339 279.1906ZM162.61203 279.1906Q162.61203 280.3781 163.12766 280.97186Q163.6589 281.5656 164.44016 281.5656Q165.23703 281.5656 165.75266 280.97186Q166.26828 280.3781 166.26828 279.15936Q166.26828 278.0031 165.73703 277.40936Q165.2214 276.8156 164.44016 276.8156Q163.6589 276.8156 163.12766 277.40936Q162.61203 277.9875 162.61203 279.1906ZM169.19016 282.3L169.19016 281.09686L170.39328 281.09686L170.39328 282.3Q170.39328 282.95624 170.1589 283.3625Q169.92453 283.78436 169.42453 284.0031L169.12766 283.55Q169.45578 283.40936 169.61203 283.1125Q169.76828 282.83124 169.79953 282.3L169.19016 282.3ZM174.62766 280.03436L175.69016 279.89374Q175.86203 280.78436 176.29953 281.1906Q176.73703 281.58124 177.36203 281.58124Q178.11203 281.58124 178.62766 281.0656Q179.14328 280.55 179.14328 279.78436Q179.14328 279.0656 178.6589 278.59686Q178.19016 278.1125 177.45578 278.1125Q177.1589 278.1125 176.70578 278.2375L176.83078 277.3Q176.94016 277.3156 177.00266 277.3156Q177.67453 277.3156 178.20578 276.97186Q178.75266 276.6125 178.75266 275.8781Q178.75266 275.3 178.36203 274.925Q177.9714 274.53436 177.3464 274.53436Q176.73703 274.53436 176.31516 274.925Q175.9089 275.3156 175.79953 276.08124L174.73703 275.89374Q174.92453 274.84686 175.61203 274.26874Q176.29953 273.675 177.31516 273.675Q178.01828 273.675 178.61203 273.9875Q179.20578 274.28436 179.51828 274.8Q179.83078 275.3156 179.83078 275.90936Q179.83078 276.45624 179.5339 276.925Q179.23703 277.3781 178.6589 277.64374Q179.4089 277.8156 179.83078 278.3781Q180.25266 278.925 180.25266 279.76874Q180.25266 280.89374 179.42453 281.675Q178.61203 282.45624 177.36203 282.45624Q176.23703 282.45624 175.48703 281.78436Q174.73703 281.09686 174.62766 280.03436ZM187.17453 281.28436L187.17453 282.3L181.48703 282.3Q181.48703 281.925 181.61203 281.5656Q181.83078 280.9875 182.29953 280.425Q182.7839 279.8625 183.69016 279.1281Q185.0964 277.97186 185.58078 277.3Q186.08078 276.6281 186.08078 276.03436Q186.08078 275.40936 185.62766 274.9875Q185.17453 274.55 184.45578 274.55Q183.69016 274.55 183.23703 275.0031Q182.7839 275.45624 182.76828 276.26874L181.69016 276.15936Q181.79953 274.9406 182.51828 274.3156Q183.25266 273.675 184.48703 273.675Q185.7214 273.675 186.44016 274.3625Q187.1589 275.05 187.1589 276.0656Q187.1589 276.58124 186.94016 277.08124Q186.73703 277.5656 186.23703 278.1281Q185.75266 278.675 184.62766 279.6281Q183.67453 280.425 183.39328 280.72186Q183.12766 281.0031 182.95578 281.28436L187.17453 281.28436ZM193.08078 278.925L193.08078 277.925L196.70578 277.90936L196.70578 281.09686Q195.87766 281.76874 194.98703 282.1125Q194.0964 282.4406 193.1589 282.4406Q191.89328 282.4406 190.8464 281.90936Q189.81516 281.3625 189.2839 280.34686Q188.76828 279.3156 188.76828 278.05Q188.76828 276.78436 189.2839 275.70624Q189.81516 274.6125 190.79953 274.09686Q191.7839 273.5656 193.06516 273.5656Q194.00266 273.5656 194.75266 273.8625Q195.50266 274.15936 195.92453 274.70624Q196.36203 275.2375 196.58078 276.1125L195.56516 276.39374Q195.36203 275.7375 195.06516 275.3625Q194.7839 274.9875 194.25266 274.76874Q193.7214 274.53436 193.08078 274.53436Q192.29953 274.53436 191.7214 274.76874Q191.1589 275.0031 190.79953 275.39374Q190.45578 275.78436 190.26828 276.2531Q189.94016 277.05 189.94016 277.97186Q189.94016 279.1281 190.33078 279.90936Q190.73703 280.675 191.48703 281.05Q192.23703 281.425 193.0964 281.425Q193.83078 281.425 194.5339 281.14374Q195.23703 280.84686 195.5964 280.53436L195.5964 278.925L193.08078 278.925ZM198.89328 282.3L197.9089 282.3L197.9089 273.70624L198.9714 273.70624L198.9714 276.76874Q199.64328 275.9406 200.67453 275.9406Q201.25266 275.9406 201.75266 276.175Q202.26828 276.39374 202.5964 276.8156Q202.94016 277.2375 203.12766 277.83124Q203.31516 278.425 203.31516 279.09686Q203.31516 280.6906 202.51828 281.5656Q201.7214 282.4406 200.62766 282.4406Q199.51828 282.4406 198.89328 281.51874L198.89328 282.3ZM198.87766 279.14374Q198.87766 280.2531 199.19016 280.7531Q199.69016 281.5656 200.5339 281.5656Q201.2214 281.5656 201.7214 280.97186Q202.23703 280.3781 202.23703 279.175Q202.23703 277.95624 201.75266 277.3781Q201.26828 276.8 200.58078 276.8Q199.89328 276.8 199.37766 277.40936Q198.87766 278.0031 198.87766 279.14374Z" fill-rule="nonzero"/><path fill="#000000" d="M241.76297 282.3L241.76297 273.70624L243.48172 273.70624L245.51297 279.78436Q245.79422 280.64374 245.91922 281.0656Q246.05984 280.59686 246.37234 279.6906L248.43484 273.70624L249.9661 273.70624L249.9661 282.3L248.87234 282.3L248.87234 275.1125L246.37234 282.3L245.3411 282.3L242.85672 274.9875L242.85672 282.3L241.76297 282.3ZM250.74734 282.3L250.74734 273.70624L253.98172 273.70624Q254.9661 273.70624 255.55984 273.97186Q256.1536 274.2375 256.48172 274.78436Q256.82547 275.3156 256.82547 275.90936Q256.82547 276.45624 256.5286 276.9406Q256.23172 277.425 255.62234 277.72186Q256.4036 277.95624 256.80984 278.51874Q257.23172 279.0656 257.23172 279.8156Q257.23172 280.40936 256.98172 280.9406Q256.73172 281.45624 256.35672 281.7375Q255.98172 282.01874 255.4036 282.15936Q254.8411 282.3 254.0286 282.3L250.74734 282.3ZM251.88797 277.3156L253.74734 277.3156Q254.49734 277.3156 254.82547 277.22186Q255.26297 277.09686 255.48172 276.8Q255.70047 276.4875 255.70047 276.03436Q255.70047 275.6125 255.49734 275.28436Q255.29422 274.95624 254.9036 274.84686Q254.5286 274.72186 253.60672 274.72186L251.88797 274.72186L251.88797 277.3156ZM251.88797 281.28436L254.0286 281.28436Q254.57547 281.28436 254.79422 281.2375Q255.20047 281.175 255.45047 281.01874Q255.7161 280.84686 255.88797 280.53436Q256.05984 280.22186 256.05984 279.8156Q256.05984 279.33124 255.80984 278.97186Q255.57547 278.6125 255.13797 278.47186Q254.70047 278.33124 253.87234 278.33124L251.88797 278.33124L251.88797 281.28436ZM261.79422 282.3L261.79422 273.70624L265.04422 273.70624Q265.88797 273.70624 266.3411 273.78436Q266.98172 273.89374 267.4036 274.1906Q267.8411 274.4875 268.0911 275.01874Q268.35672 275.55 268.35672 276.1906Q268.35672 277.28436 267.6536 278.05Q266.9661 278.8 265.13797 278.8L262.93484 278.8L262.93484 282.3L261.79422 282.3ZM262.93484 277.8L265.1536 277.8Q266.26297 277.8 266.7161 277.39374Q267.18484 276.97186 267.18484 276.22186Q267.18484 275.6906 266.9036 275.3156Q266.63797 274.925 266.20047 274.8Q265.9036 274.72186 265.13797 274.72186L262.93484 274.72186L262.93484 277.8ZM269.6536 282.3L269.6536 276.08124L270.60672 276.08124L270.60672 277.01874Q270.9661 276.3625 271.26297 276.15936Q271.57547 275.9406 271.95047 275.9406Q272.48172 275.9406 273.0286 276.26874L272.66922 277.2531Q272.2786 277.01874 271.9036 277.01874Q271.54422 277.01874 271.26297 277.2375Q270.99734 277.4406 270.88797 277.8156Q270.70047 278.3781 270.70047 279.03436L270.70047 282.3L269.6536 282.3ZM273.2786 279.1906Q273.2786 277.45624 274.23172 276.6281Q275.0286 275.9406 276.18484 275.9406Q277.4661 275.9406 278.2786 276.78436Q279.10672 277.6125 279.10672 279.09686Q279.10672 280.3 278.74734 280.9875Q278.38797 281.675 277.68484 282.0656Q276.99734 282.4406 276.18484 282.4406Q274.88797 282.4406 274.07547 281.6125Q273.2786 280.76874 273.2786 279.1906ZM274.35672 279.1906Q274.35672 280.3781 274.87234 280.97186Q275.4036 281.5656 276.18484 281.5656Q276.98172 281.5656 277.49734 280.97186Q278.01297 280.3781 278.01297 279.15936Q278.01297 278.0031 277.48172 277.40936Q276.9661 276.8156 276.18484 276.8156Q275.4036 276.8156 274.87234 277.40936Q274.35672 277.9875 274.35672 279.1906ZM283.99734 282.3L283.99734 273.70624L285.12234 273.70624L285.12234 282.3L283.99734 282.3ZM286.66922 282.3L286.66922 276.08124L287.60672 276.08124L287.60672 276.95624Q288.29422 275.9406 289.5911 275.9406Q290.1536 275.9406 290.62234 276.14374Q291.10672 276.34686 291.3411 276.675Q291.57547 277.0031 291.66922 277.4406Q291.7161 277.7375 291.7161 278.47186L291.7161 282.3L290.66922 282.3L290.66922 278.51874Q290.66922 277.8625 290.54422 277.55Q290.41922 277.2375 290.10672 277.05Q289.79422 276.84686 289.37234 276.84686Q288.70047 276.84686 288.20047 277.28436Q287.7161 277.70624 287.7161 278.89374L287.7161 282.3L286.66922 282.3ZM295.9661 281.3625L296.12234 282.28436Q295.66922 282.3781 295.32547 282.3781Q294.74734 282.3781 294.43484 282.20624Q294.12234 282.01874 293.98172 281.72186Q293.85672 281.425 293.85672 280.47186L293.85672 276.89374L293.0911 276.89374L293.0911 276.08124L293.85672 276.08124L293.85672 274.53436L294.9036 273.90936L294.9036 276.08124L295.9661 276.08124L295.9661 276.89374L294.9036 276.89374L294.9036 280.53436Q294.9036 280.9875 294.95047 281.1125Q295.01297 281.2375 295.13797 281.3156Q295.26297 281.39374 295.49734 281.39374Q295.68484 281.39374 295.9661 281.3625ZM300.91922 280.3L302.01297 280.425Q301.76297 281.3781 301.05984 281.90936Q300.35672 282.4406 299.2786 282.4406Q297.91922 282.4406 297.10672 281.59686Q296.30984 280.7531 296.30984 279.2375Q296.30984 277.675 297.12234 276.8156Q297.93484 275.9406 299.2161 275.9406Q300.4661 275.9406 301.24734 276.78436Q302.04422 277.6281 302.04422 279.175Q302.04422 279.26874 302.04422 279.45624L297.4036 279.45624Q297.4661 280.4875 297.98172 281.03436Q298.49734 281.5656 299.2786 281.5656Q299.85672 281.5656 300.26297 281.26874Q300.68484 280.95624 300.91922 280.3ZM297.4661 278.59686L300.93484 278.59686Q300.87234 277.8 300.54422 277.40936Q300.0286 276.8 299.23172 276.8Q298.49734 276.8 297.99734 277.28436Q297.51297 277.76874 297.4661 278.59686ZM303.63797 282.3L303.63797 273.70624L304.70047 273.70624L304.70047 282.3L303.63797 282.3ZM309.66922 274.925L309.66922 273.70624L310.73172 273.70624L310.73172 274.925L309.66922 274.925ZM309.66922 282.3L309.66922 276.08124L310.73172 276.08124L310.73172 282.3L309.66922 282.3ZM312.37234 280.05L313.48172 279.95624Q313.60672 280.76874 314.04422 281.175Q314.49734 281.58124 315.13797 281.58124Q315.88797 281.58124 316.41922 281.0031Q316.95047 280.425 316.95047 279.4875Q316.95047 278.58124 316.43484 278.0656Q315.93484 277.53436 315.10672 277.53436Q314.60672 277.53436 314.18484 277.76874Q313.7786 278.0031 313.54422 278.3625L312.55984 278.2375L313.38797 273.83124L317.66922 273.83124L317.66922 274.83124L314.23172 274.83124L313.7786 277.14374Q314.54422 276.59686 315.38797 276.59686Q316.51297 276.59686 317.2786 277.3781Q318.05984 278.15936 318.05984 279.39374Q318.05984 280.55 317.38797 281.40936Q316.55984 282.4406 315.13797 282.4406Q313.9661 282.4406 313.2161 281.78436Q312.48172 281.1281 312.37234 280.05ZM319.93484 282.3L319.93484 281.09686L321.13797 281.09686L321.13797 282.3Q321.13797 282.95624 320.9036 283.3625Q320.66922 283.78436 320.16922 284.0031L319.87234 283.55Q320.20047 283.40936 320.35672 283.1125Q320.51297 282.83124 320.54422 282.3L319.93484 282.3ZM329.3411 282.3L328.29422 282.3L328.29422 275.58124Q327.9036 275.9406 327.2786 276.3156Q326.66922 276.675 326.18484 276.84686L326.18484 275.83124Q327.05984 275.40936 327.7161 274.83124Q328.38797 274.2375 328.66922 273.675L329.3411 273.675L329.3411 282.3ZM337.8411 275.8156L336.79422 275.89374Q336.6536 275.26874 336.4036 274.9875Q335.9661 274.53436 335.3411 274.53436Q334.8411 274.53436 334.45047 274.8156Q333.9661 275.1906 333.66922 275.89374Q333.38797 276.58124 333.37234 277.8625Q333.74734 277.28436 334.29422 277.0031Q334.85672 276.72186 335.4661 276.72186Q336.51297 276.72186 337.24734 277.5031Q337.99734 278.28436 337.99734 279.5031Q337.99734 280.3156 337.63797 281.01874Q337.29422 281.70624 336.68484 282.08124Q336.07547 282.4406 335.30984 282.4406Q333.98172 282.4406 333.1536 281.47186Q332.32547 280.5031 332.32547 278.28436Q332.32547 275.78436 333.24734 274.65936Q334.04422 273.675 335.4036 273.675Q336.41922 273.675 337.05984 274.2531Q337.7161 274.8156 337.8411 275.8156ZM333.54422 279.51874Q333.54422 280.0656 333.76297 280.5656Q333.99734 281.05 334.4036 281.3156Q334.82547 281.58124 335.29422 281.58124Q335.95047 281.58124 336.43484 281.05Q336.91922 280.5031 336.91922 279.58124Q336.91922 278.6906 336.43484 278.175Q335.9661 277.65936 335.24734 277.65936Q334.5286 277.65936 334.0286 278.175Q333.54422 278.6906 333.54422 279.51874ZM343.82547 278.925L343.82547 277.925L347.45047 277.90936L347.45047 281.09686Q346.62234 281.76874 345.73172 282.1125Q344.8411 282.4406 343.9036 282.4406Q342.63797 282.4406 341.5911 281.90936Q340.55984 281.3625 340.0286 280.34686Q339.51297 279.3156 339.51297 278.05Q339.51297 276.78436 340.0286 275.70624Q340.55984 274.6125 341.54422 274.09686Q342.5286 273.5656 343.80984 273.5656Q344.74734 273.5656 345.49734 273.8625Q346.24734 274.15936 346.66922 274.70624Q347.10672 275.2375 347.32547 276.1125L346.30984 276.39374Q346.10672 275.7375 345.80984 275.3625Q345.5286 274.9875 344.99734 274.76874Q344.4661 274.53436 343.82547 274.53436Q343.04422 274.53436 342.4661 274.76874Q341.9036 275.0031 341.54422 275.39374Q341.20047 275.78436 341.01297 276.2531Q340.68484 277.05 340.68484 277.97186Q340.68484 279.1281 341.07547 279.90936Q341.48172 280.675 342.23172 281.05Q342.98172 281.425 343.8411 281.425Q344.57547 281.425 345.2786 281.14374Q345.98172 280.84686 346.3411 280.53436L346.3411 278.925L343.82547 278.925ZM349.63797 282.3L348.6536 282.3L348.6536 273.70624L349.7161 273.70624L349.7161 276.76874Q350.38797 275.9406 351.41922 275.9406Q351.99734 275.9406 352.49734 276.175Q353.01297 276.39374 353.3411 276.8156Q353.68484 277.2375 353.87234 277.83124Q354.05984 278.425 354.05984 279.09686Q354.05984 280.6906 353.26297 281.5656Q352.4661 282.4406 351.37234 282.4406Q350.26297 282.4406 349.63797 281.51874L349.63797 282.3ZM349.62234 279.14374Q349.62234 280.2531 349.93484 280.7531Q350.43484 281.5656 351.2786 281.5656Q351.9661 281.5656 352.4661 280.97186Q352.98172 280.3781 352.98172 279.175Q352.98172 277.95624 352.49734 277.3781Q352.01297 276.8 351.32547 276.8Q350.63797 276.8 350.12234 277.40936Q349.62234 278.0031 349.62234 279.14374Z" fill-rule="nonzero"/><path fill="#4285f4" d="M150.0 53.833332C150.0 53.281048 150.44771 52.833332 151.0 52.833332L161.0 52.833332C161.55229 52.833332 162.0 53.281048 162.0 53.833332L162.0 63.833332C162.0 64.38562 161.55229 64.833336 161.0 64.833336L151.0 64.833336C150.44771 64.833336 150.0 64.38562 150.0 63.833332Z" fill-rule="nonzero"/><path fill="#1a1a1a" d="M170.92188 62.833332L170.92188 54.239582L173.89062 54.239582Q174.89062 54.239582 175.42188 54.364582Q176.15625 54.536457 176.67188 54.973957Q177.35938 55.552082 177.6875 56.458332Q178.03125 57.348957 178.03125 58.489582Q178.03125 59.473957 177.79688 60.223957Q177.57812 60.973957 177.21875 61.473957Q176.85938 61.973957 176.42188 62.255207Q176.0 62.536457 175.40625 62.692707Q174.8125 62.833332 174.03125 62.833332L170.92188 62.833332ZM172.0625 61.817707L173.89062 61.817707Q174.75 61.817707 175.23438 61.661457Q175.71875 61.505207 176.0 61.208332Q176.40625 60.817707 176.625 60.130207Q176.85938 59.442707 176.85938 58.473957Q176.85938 57.130207 176.40625 56.411457Q175.96875 55.677082 175.34375 55.427082Q174.875 55.255207 173.875 55.255207L172.0625 55.255207L172.0625 61.817707ZM184.04688 60.833332L185.14062 60.958332Q184.89062 61.911457 184.1875 62.442707Q183.48438 62.973957 182.40625 62.973957Q181.04688 62.973957 180.23438 62.130207Q179.4375 61.286457 179.4375 59.770832Q179.4375 58.208332 180.25 57.348957Q181.0625 56.473957 182.34375 56.473957Q183.59375 56.473957 184.375 57.317707Q185.17188 58.161457 185.17188 59.708332Q185.17188 59.802082 185.17188 59.989582L180.53125 59.989582Q180.59375 61.020832 181.10938 61.567707Q181.625 62.098957 182.40625 62.098957Q182.98438 62.098957 183.39062 61.802082Q183.8125 61.489582 184.04688 60.833332ZM180.59375 59.130207L184.0625 59.130207Q184.0 58.333332 183.67188 57.942707Q183.15625 57.333332 182.35938 57.333332Q181.625 57.333332 181.125 57.817707Q180.64062 58.302082 180.59375 59.130207ZM191.04688 60.833332L192.14062 60.958332Q191.89062 61.911457 191.1875 62.442707Q190.48438 62.973957 189.40625 62.973957Q188.04688 62.973957 187.23438 62.130207Q186.4375 61.286457 186.4375 59.770832Q186.4375 58.208332 187.25 57.348957Q188.0625 56.473957 189.34375 56.473957Q190.59375 56.473957 191.375 57.317707Q192.17188 58.161457 192.17188 59.708332Q192.17188 59.802082 192.17188 59.989582L187.53125 59.989582Q187.59375 61.020832 188.10938 61.567707Q188.625 62.098957 189.40625 62.098957Q189.98438 62.098957 190.39062 61.802082Q190.8125 61.489582 191.04688 60.833332ZM187.59375 59.130207L191.0625 59.130207Q191.0 58.333332 190.67188 57.942707Q190.15625 57.333332 189.35938 57.333332Q188.625 57.333332 188.125 57.817707Q187.64062 58.302082 187.59375 59.130207ZM197.82812 62.833332L197.82812 62.052082Q197.23438 62.973957 196.09375 62.973957Q195.34375 62.973957 194.71875 62.567707Q194.09375 62.145832 193.75 61.411457Q193.40625 60.677082 193.40625 59.723957Q193.40625 58.802082 193.71875 58.036457Q194.03125 57.270832 194.65625 56.880207Q195.28125 56.473957 196.04688 56.473957Q196.60938 56.473957 197.04688 56.708332Q197.48438 56.942707 197.76562 57.317707L197.76562 54.239582L198.8125 54.239582L198.8125 62.833332L197.82812 62.833332ZM194.5 59.723957Q194.5 60.927082 195.0 61.520832Q195.5 62.098957 196.1875 62.098957Q196.875 62.098957 197.35938 61.536457Q197.84375 60.973957 197.84375 59.817707Q197.84375 58.536457 197.34375 57.942707Q196.85938 57.348957 196.14062 57.348957Q195.4375 57.348957 194.96875 57.927082Q194.5 58.489582 194.5 59.723957Z" fill-rule="nonzero"/><path fill="#ea4335" d="M216.0 53.833332C216.0 53.281048 216.44771 52.833332 217.0 52.833332L227.0 52.833332C227.55229 52.833332 228.0 53.281048 228.0 53.833332L228.0 63.833332C228.0 64.38562 227.55229 64.833336 227.0 64.833336L217.0 64.833336C216.44771 64.833336 216.0 64.38562 216.0 63.833332Z" fill-rule="nonzero"/><path fill="#1a1a1a" d="M236.92188 62.833332L236.92188 54.239582L238.07812 54.239582L242.59375 60.989582L242.59375 54.239582L243.6875 54.239582L243.6875 62.833332L242.51562 62.833332L238.0 56.083332L238.0 62.833332L236.92188 62.833332ZM245.79688 55.458332L245.79688 54.239582L246.85938 54.239582L246.85938 55.458332L245.79688 55.458332ZM245.79688 62.833332L245.79688 56.614582L246.85938 56.614582L246.85938 62.833332L245.79688 62.833332ZM248.79688 65.22395L248.79688 56.614582L249.75 56.614582L249.75 57.411457Q250.09375 56.942707 250.51562 56.708332Q250.95312 56.473957 251.5625 56.473957Q252.35938 56.473957 252.96875 56.880207Q253.57812 57.286457 253.875 58.036457Q254.1875 58.786457 254.1875 59.677082Q254.1875 60.630207 253.84375 61.395832Q253.51562 62.161457 252.85938 62.567707Q252.20312 62.973957 251.48438 62.973957Q250.95312 62.973957 250.53125 62.755207Q250.10938 62.520832 249.84375 62.192707L249.84375 65.22395L248.79688 65.22395ZM249.75 59.755207Q249.75 60.958332 250.23438 61.536457Q250.71875 62.098957 251.40625 62.098957Q252.10938 62.098957 252.60938 61.505207Q253.10938 60.911457 253.10938 59.661457Q253.10938 58.473957 252.625 57.895832Q252.14062 57.302082 251.45312 57.302082Q250.78125 57.302082 250.26562 57.927082Q249.75 58.552082 249.75 59.755207ZM255.79688 65.22395L255.79688 56.614582L256.75 56.614582L256.75 57.411457Q257.09375 56.942707 257.51562 56.708332Q257.95312 56.473957 258.5625 56.473957Q259.35938 56.473957 259.96875 56.880207Q260.57812 57.286457 260.875 58.036457Q261.1875 58.786457 261.1875 59.677082Q261.1875 60.630207 260.84375 61.395832Q260.51562 62.161457 259.85938 62.567707Q259.20312 62.973957 258.48438 62.973957Q257.95312 62.973957 257.53125 62.755207Q257.10938 62.520832 256.84375 62.192707L256.84375 65.22395L255.79688 65.22395ZM256.75 59.755207Q256.75 60.958332 257.23438 61.536457Q257.71875 62.098957 258.40625 62.098957Q259.10938 62.098957 259.60938 61.505207Q260.10938 60.911457 260.10938 59.661457Q260.10938 58.473957 259.625 57.895832Q259.14062 57.302082 258.45312 57.302082Q257.78125 57.302082 257.26562 57.927082Q256.75 58.552082 256.75 59.755207ZM262.75 65.22395L262.625 64.23958Q262.96875 64.33333 263.23438 64.33333Q263.57812 64.33333 263.78125 64.20833Q264.0 64.09895 264.14062 63.895832Q264.23438 63.723957 264.46875 63.098957Q264.48438 63.020832 264.5625 62.848957L262.1875 56.614582L263.32812 56.614582L264.625 60.208332Q264.875 60.895832 265.07812 61.661457Q265.26562 60.927082 265.51562 60.239582L266.84375 56.614582L267.89062 56.614582L265.53125 62.942707Q265.14062 63.958332 264.9375 64.34895Q264.65625 64.8802 264.28125 65.11458Q263.92188 65.36458 263.42188 65.36458Q263.125 65.36458 262.75 65.22395Z" fill-rule="nonzero"/><path fill="#757575" d="M18.278126 35.7L18.278126 21.3875L28.6375 21.3875L28.6375 23.075L20.184376 23.075L20.184376 27.45L28.090626 27.45L28.090626 29.1375L20.184376 29.1375L20.184376 34.0125L28.965626 34.0125L28.965626 35.7L18.278126 35.7ZM31.0125 35.7L31.0125 25.325L32.60625 25.325L32.60625 26.809376Q33.746876 25.090626 35.903126 25.090626Q36.840626 25.090626 37.621876 25.434376Q38.41875 25.7625 38.809376 26.309376Q39.2 26.85625 39.35625 27.60625Q39.45 28.10625 39.45 29.325L39.45 35.7L37.684376 35.7L37.684376 29.3875Q37.684376 28.309376 37.48125 27.778126Q37.278126 27.246876 36.746876 26.934376Q36.23125 26.621876 35.528126 26.621876Q34.403126 26.621876 33.590626 27.340626Q32.778126 28.04375 32.778126 30.028126L32.778126 35.7L31.0125 35.7ZM47.79375 31.903126L49.5125 32.121876Q49.23125 33.91875 48.059376 34.934376Q46.903126 35.934376 45.2 35.934376Q43.075 35.934376 41.778126 34.54375Q40.48125 33.153126 40.48125 30.559376Q40.48125 28.871876 41.028126 27.621876Q41.590626 26.35625 42.73125 25.73125Q43.871876 25.090626 45.215626 25.090626Q46.903126 25.090626 47.965626 25.95Q49.04375 26.809376 49.35625 28.371876L47.6375 28.6375Q47.403126 27.590626 46.778126 27.075Q46.153126 26.54375 45.278126 26.54375Q43.95 26.54375 43.121876 27.496876Q42.29375 28.45 42.29375 30.496876Q42.29375 32.590626 43.090626 33.54375Q43.8875 34.48125 45.184376 34.48125Q46.215626 34.48125 46.903126 33.85625Q47.60625 33.215626 47.79375 31.903126ZM50.371876 30.5125Q50.371876 27.6375 51.965626 26.246876Q53.309376 25.090626 55.23125 25.090626Q57.371876 25.090626 58.715626 26.496876Q60.075 27.903126 60.075 30.371876Q60.075 32.371876 59.48125 33.528126Q58.8875 34.66875 57.73125 35.309376Q56.590626 35.934376 55.23125 35.934376Q53.04375 35.934376 51.7 34.54375Q50.371876 33.1375 50.371876 30.5125ZM52.16875 30.5125Q52.16875 32.5125 53.028126 33.496876Q53.903126 34.48125 55.23125 34.48125Q56.54375 34.48125 57.403126 33.496876Q58.278126 32.496876 58.278126 30.45Q58.278126 28.528126 57.403126 27.54375Q56.528126 26.54375 55.23125 26.54375Q53.903126 26.54375 53.028126 27.54375Q52.16875 28.528126 52.16875 30.5125ZM68.74687 35.7L68.74687 34.3875Q67.7625 35.934376 65.84062 35.934376Q64.60625 35.934376 63.559376 35.246876Q62.528126 34.559376 61.95 33.340626Q61.3875 32.121876 61.3875 30.528126Q61.3875 28.965626 61.903126 27.7Q62.41875 26.434376 63.45 25.7625Q64.49687 25.090626 65.7625 25.090626Q66.7 25.090626 67.43437 25.496876Q68.16875 25.8875 68.6375 26.5125L68.6375 21.3875L70.37187 21.3875L70.37187 35.7L68.74687 35.7ZM63.184376 30.528126Q63.184376 32.5125 64.02812 33.496876Q64.87187 34.48125 66.0125 34.48125Q67.16875 34.48125 67.96562 33.54375Q68.77812 32.60625 68.77812 30.66875Q68.77812 28.54375 67.95 27.54375Q67.1375 26.54375 65.93437 26.54375Q64.7625 26.54375 63.965626 27.5125Q63.184376 28.465626 63.184376 30.528126ZM73.02812 23.403126L73.02812 21.3875L74.79375 21.3875L74.79375 23.403126L73.02812 23.403126ZM73.02812 35.7L73.02812 25.325L74.79375 25.325L74.79375 35.7L73.02812 35.7ZM77.0125 35.7L77.0125 25.325L78.60625 25.325L78.60625 26.809376Q79.74687 25.090626 81.90312 25.090626Q82.84062 25.090626 83.62187 25.434376Q84.41875 25.7625 84.80937 26.309376Q85.2 26.85625 85.35625 27.60625Q85.45 28.10625 85.45 29.325L85.45 35.7L83.68437 35.7L83.68437 29.3875Q83.68437 28.309376 83.48125 27.778126Q83.27812 27.246876 82.74687 26.934376Q82.23125 26.621876 81.52812 26.621876Q80.40312 26.621876 79.59062 27.340626Q78.77812 28.04375 78.77812 30.028126L78.77812 35.7L77.0125 35.7ZM86.7 36.559376L88.40312 36.809376Q88.5125 37.60625 88.99687 37.965626Q89.65312 38.45 90.79375 38.45Q92.0125 38.45 92.66875 37.965626Q93.34062 37.48125 93.575 36.60625Q93.71562 36.059376 93.7 34.340626Q92.54375 35.7 90.825 35.7Q88.68437 35.7 87.5125 34.153126Q86.34062 32.60625 86.34062 30.45Q86.34062 28.965626 86.87187 27.715626Q87.41875 26.465626 88.43437 25.778126Q89.46562 25.090626 90.84062 25.090626Q92.66875 25.090626 93.87187 26.575L93.87187 25.325L95.48125 25.325L95.48125 34.29375Q95.48125 36.715626 94.98125 37.715626Q94.49687 38.73125 93.41875 39.309376Q92.35625 39.903126 90.79375 39.903126Q88.95 39.903126 87.79375 39.075Q86.65312 38.246876 86.7 36.559376ZM88.15312 30.325Q88.15312 32.371876 88.96562 33.309376Q89.77812 34.246876 90.99687 34.246876Q92.2 34.246876 93.0125 33.309376Q93.84062 32.371876 93.84062 30.3875Q93.84062 28.48125 92.99687 27.5125Q92.15312 26.54375 90.96562 26.54375Q89.79375 26.54375 88.96562 27.496876Q88.15312 28.45 88.15312 30.325ZM110.79375 34.41875Q109.80937 35.246876 108.90312 35.590626Q107.99687 35.934376 106.96562 35.934376Q105.2625 35.934376 104.34062 35.10625Q103.41875 34.2625 103.41875 32.965626Q103.41875 32.2 103.7625 31.575Q104.12187 30.95 104.68437 30.575Q105.24687 30.184376 105.95 29.98125Q106.46562 29.85625 107.5125 29.715626Q109.6375 29.465626 110.6375 29.121876Q110.65312 28.7625 110.65312 28.653126Q110.65312 27.590626 110.15312 27.1375Q109.48125 26.54375 108.15312 26.54375Q106.90312 26.54375 106.30937 26.98125Q105.73125 27.41875 105.45 28.528126L103.73125 28.29375Q103.96562 27.184376 104.49687 26.5125Q105.02812 25.825 106.04375 25.465626Q107.05937 25.090626 108.40312 25.090626Q109.73125 25.090626 110.55937 25.403126Q111.3875 25.715626 111.77812 26.2Q112.16875 26.66875 112.325 27.3875Q112.41875 27.840626 112.41875 29.0125L112.41875 31.35625Q112.41875 33.809376 112.52812 34.465626Q112.6375 35.10625 112.98125 35.7L111.1375 35.7Q110.87187 35.153126 110.79375 34.41875ZM110.6375 30.496876Q109.68437 30.8875 107.7625 31.153126Q106.68437 31.309376 106.23125 31.5125Q105.79375 31.7 105.54375 32.075Q105.29375 32.45 105.29375 32.91875Q105.29375 33.621876 105.825 34.090626Q106.35625 34.559376 107.3875 34.559376Q108.40312 34.559376 109.18437 34.121876Q109.98125 33.66875 110.35625 32.903126Q110.6375 32.29375 110.6375 31.1375L110.6375 30.496876ZM121.0125 35.7L121.0125 21.3875L122.77812 21.3875L122.77812 26.5125Q124.0125 25.090626 125.8875 25.090626Q127.02812 25.090626 127.87187 25.54375Q128.73125 25.996876 129.09062 26.809376Q129.46562 27.60625 129.46562 29.121876L129.46562 35.7L127.71562 35.7L127.71562 29.121876Q127.71562 27.809376 127.1375 27.215626Q126.55937 26.60625 125.52812 26.60625Q124.74687 26.60625 124.04375 27.0125Q123.35625 27.41875 123.05937 28.121876Q122.77812 28.809376 122.77812 30.028126L122.77812 35.7L121.0125 35.7ZM137.80937 35.7L137.80937 34.16875Q136.60625 35.934376 134.52812 35.934376Q133.60625 35.934376 132.80937 35.590626Q132.0125 35.23125 131.62187 34.7Q131.24687 34.16875 131.09062 33.3875Q130.98125 32.871876 130.98125 31.746876L130.98125 25.325L132.73125 25.325L132.73125 31.075Q132.73125 32.45 132.84062 32.934376Q133.0125 33.621876 133.54375 34.028126Q134.09062 34.41875 134.87187 34.41875Q135.66875 34.41875 136.35625 34.0125Q137.05937 33.60625 137.34062 32.91875Q137.6375 32.215626 137.6375 30.8875L137.6375 25.325L139.3875 25.325L139.3875 35.7L137.80937 35.7ZM140.7 36.559376L142.40312 36.809376Q142.5125 37.60625 142.99687 37.965626Q143.65312 38.45 144.79375 38.45Q146.0125 38.45 146.66875 37.965626Q147.34062 37.48125 147.575 36.60625Q147.71562 36.059376 147.7 34.340626Q146.54375 35.7 144.825 35.7Q142.68437 35.7 141.5125 34.153126Q140.34062 32.60625 140.34062 30.45Q140.34062 28.965626 140.87187 27.715626Q141.41875 26.465626 142.43437 25.778126Q143.46562 25.090626 144.84062 25.090626Q146.66875 25.090626 147.87187 26.575L147.87187 25.325L149.48125 25.325L149.48125 34.29375Q149.48125 36.715626 148.98125 37.715626Q148.49687 38.73125 147.41875 39.309376Q146.35625 39.903126 144.79375 39.903126Q142.95 39.903126 141.79375 39.075Q140.65312 38.246876 140.7 36.559376ZM142.15312 30.325Q142.15312 32.371876 142.96562 33.309376Q143.77812 34.246876 144.99687 34.246876Q146.2 34.246876 147.0125 33.309376Q147.84062 32.371876 147.84062 30.3875Q147.84062 28.48125 146.99687 27.5125Q146.15312 26.54375 144.96562 26.54375Q143.79375 26.54375 142.96562 27.496876Q142.15312 28.45 142.15312 30.325ZM159.12187 32.35625L160.93437 32.590626Q160.5125 34.16875 159.34062 35.059376Q158.18437 35.934376 156.37187 35.934376Q154.10625 35.934376 152.7625 34.54375Q151.43437 33.1375 151.43437 30.60625Q151.43437 27.98125 152.77812 26.54375Q154.12187 25.090626 156.27812 25.090626Q158.35625 25.090626 159.66875 26.5125Q160.99687 27.91875 160.99687 30.496876Q160.99687 30.653126 160.98125 30.965626L153.24687 30.965626Q153.34062 32.66875 154.21562 33.575Q155.09062 34.48125 156.3875 34.48125Q157.35625 34.48125 158.02812 33.98125Q158.71562 33.465626 159.12187 32.35625ZM153.34062 29.5125L159.1375 29.5125Q159.02812 28.215626 158.48125 27.559376Q157.6375 26.54375 156.29375 26.54375Q155.09062 26.54375 154.2625 27.35625Q153.43437 28.153126 153.34062 29.5125ZM169.0125 35.7L169.0125 25.325L170.59062 25.325L170.59062 26.778126Q171.075 26.028126 171.8875 25.559376Q172.7 25.090626 173.73125 25.090626Q174.8875 25.090626 175.62187 25.575Q176.35625 26.04375 176.66875 26.903126Q177.90312 25.090626 179.87187 25.090626Q181.41875 25.090626 182.24687 25.95Q183.075 26.809376 183.075 28.575L183.075 35.7L181.325 35.7L181.325 29.16875Q181.325 28.10625 181.15312 27.653126Q180.98125 27.184376 180.52812 26.903126Q180.09062 26.621876 179.48125 26.621876Q178.3875 26.621876 177.65312 27.35625Q176.93437 28.075 176.93437 29.66875L176.93437 35.7L175.18437 35.7L175.18437 28.965626Q175.18437 27.79375 174.74687 27.215626Q174.325 26.621876 173.34062 26.621876Q172.60625 26.621876 171.96562 27.0125Q171.34062 27.403126 171.05937 28.153126Q170.77812 28.903126 170.77812 30.325L170.77812 35.7L169.0125 35.7ZM191.79375 34.41875Q190.80937 35.246876 189.90312 35.590626Q188.99687 35.934376 187.96562 35.934376Q186.2625 35.934376 185.34062 35.10625Q184.41875 34.2625 184.41875 32.965626Q184.41875 32.2 184.7625 31.575Q185.12187 30.95 185.68437 30.575Q186.24687 30.184376 186.95 29.98125Q187.46562 29.85625 188.5125 29.715626Q190.6375 29.465626 191.6375 29.121876Q191.65312 28.7625 191.65312 28.653126Q191.65312 27.590626 191.15312 27.1375Q190.48125 26.54375 189.15312 26.54375Q187.90312 26.54375 187.30937 26.98125Q186.73125 27.41875 186.45 28.528126L184.73125 28.29375Q184.96562 27.184376 185.49687 26.5125Q186.02812 25.825 187.04375 25.465626Q188.05937 25.090626 189.40312 25.090626Q190.73125 25.090626 191.55937 25.403126Q192.3875 25.715626 192.77812 26.2Q193.16875 26.66875 193.325 27.3875Q193.41875 27.840626 193.41875 29.0125L193.41875 31.35625Q193.41875 33.809376 193.52812 34.465626Q193.6375 35.10625 193.98125 35.7L192.1375 35.7Q191.87187 35.153126 191.79375 34.41875ZM191.6375 30.496876Q190.68437 30.8875 188.7625 31.153126Q187.68437 31.309376 187.23125 31.5125Q186.79375 31.7 186.54375 32.075Q186.29375 32.45 186.29375 32.91875Q186.29375 33.621876 186.825 34.090626Q187.35625 34.559376 188.3875 34.559376Q189.40312 34.559376 190.18437 34.121876Q190.98125 33.66875 191.35625 32.903126Q191.6375 32.29375 191.6375 31.1375L191.6375 30.496876ZM196.0125 39.66875L196.0125 25.325L197.62187 25.325L197.62187 26.66875Q198.18437 25.8875 198.8875 25.496876Q199.60625 25.090626 200.62187 25.090626Q201.95 25.090626 202.96562 25.778126Q203.98125 26.465626 204.49687 27.715626Q205.02812 28.95 205.02812 30.434376Q205.02812 32.028126 204.45 33.309376Q203.8875 34.575 202.79375 35.2625Q201.7 35.934376 200.49687 35.934376Q199.62187 35.934376 198.91875 35.559376Q198.23125 35.184376 197.77812 34.621876L197.77812 39.66875L196.0125 39.66875ZM197.60625 30.575Q197.60625 32.575 198.41875 33.528126Q199.23125 34.48125 200.3875 34.48125Q201.55937 34.48125 202.3875 33.496876Q203.23125 32.5125 203.23125 30.41875Q203.23125 28.45 202.40312 27.465626Q201.59062 26.465626 200.46562 26.465626Q199.34062 26.465626 198.46562 27.528126Q197.60625 28.575 197.60625 30.575ZM207.48125 35.7L207.48125 33.7L209.48125 33.7L209.48125 35.7Q209.48125 36.809376 209.09062 37.48125Q208.7 38.16875 207.85625 38.528126L207.35625 37.778126Q207.91875 37.54375 208.18437 37.059376Q208.45 36.590626 208.48125 35.7L207.48125 35.7ZM227.6375 25.325L227.6375 35.7L226.075 35.7L226.075 34.465626Q225.55937 35.246876 225.05937 35.54375Q224.3875 35.95 223.46562 35.95Q222.66875 35.95 222.04375 35.621876Q221.575 35.371876 220.99687 34.653126L220.99687 39.66875L219.2625 39.66875L219.2625 25.325L220.99687 25.325L220.99687 29.715626Q220.99687 32.121876 221.24687 32.825Q221.5125 33.528126 222.075 33.95Q222.65312 34.35625 223.3875 34.35625Q224.16875 34.35625 224.77812 33.934376Q225.40312 33.496876 225.65312 32.825Q225.91875 32.1375 225.91875 29.746876L225.91875 25.325L227.6375 25.325ZM229.30937 32.60625L231.05937 32.325Q231.2 33.371876 231.87187 33.934376Q232.54375 34.48125 233.74687 34.48125Q234.95 34.48125 235.52812 33.996876Q236.12187 33.496876 236.12187 32.840626Q236.12187 32.246876 235.60625 31.903126Q235.24687 31.66875 233.80937 31.309376Q231.87187 30.809376 231.12187 30.465626Q230.3875 30.10625 229.99687 29.48125Q229.60625 28.840626 229.60625 28.075Q229.60625 27.3875 229.91875 26.79375Q230.24687 26.2 230.79375 25.809376Q231.2 25.5125 231.90312 25.309376Q232.62187 25.090626 233.43437 25.090626Q234.65312 25.090626 235.575 25.45Q236.49687 25.79375 236.93437 26.403126Q237.37187 26.996876 237.54375 27.996876L235.825 28.23125Q235.7 27.434376 235.1375 26.996876Q234.575 26.54375 233.55937 26.54375Q232.34062 26.54375 231.825 26.95Q231.30937 27.340626 231.30937 27.871876Q231.30937 28.215626 231.52812 28.496876Q231.73125 28.778126 232.2 28.965626Q232.46562 29.059376 233.74687 29.403126Q235.62187 29.903126 236.35625 30.23125Q237.09062 30.54375 237.5125 31.153126Q237.93437 31.746876 237.93437 32.653126Q237.93437 33.528126 237.41875 34.309376Q236.90312 35.090626 235.93437 35.5125Q234.96562 35.934376 233.74687 35.934376Q231.73125 35.934376 230.66875 35.090626Q229.60625 34.246876 229.30937 32.60625ZM249.37187 39.903126Q247.91875 38.075 246.91875 35.621876Q245.91875 33.153126 245.91875 30.5125Q245.91875 28.184376 246.66875 26.059376Q247.54375 23.590626 249.37187 21.1375L250.6375 21.1375Q249.45 23.16875 249.075 24.04375Q248.48125 25.3875 248.1375 26.85625Q247.71562 28.684376 247.71562 30.528126Q247.71562 35.215626 250.6375 39.903126L249.37187 39.903126ZM252.98125 35.7L252.98125 21.3875L254.73125 21.3875L254.73125 35.7L252.98125 35.7ZM264.1219 32.35625L265.9344 32.590626Q265.5125 34.16875 264.34064 35.059376Q263.1844 35.934376 261.3719 35.934376Q259.10626 35.934376 257.7625 34.54375Q256.4344 33.1375 256.4344 30.60625Q256.4344 27.98125 257.77814 26.54375Q259.1219 25.090626 261.27814 25.090626Q263.35626 25.090626 264.66876 26.5125Q265.9969 27.91875 265.9969 30.496876Q265.9969 30.653126 265.98126 30.965626L258.2469 30.965626Q258.34064 32.66875 259.21564 33.575Q260.09064 34.48125 261.3875 34.48125Q262.35626 34.48125 263.02814 33.98125Q263.71564 33.465626 264.1219 32.35625ZM258.34064 29.5125L264.1375 29.5125Q264.02814 28.215626 263.48126 27.559376Q262.6375 26.54375 261.29376 26.54375Q260.09064 26.54375 259.2625 27.35625Q258.4344 28.153126 258.34064 29.5125ZM267.3094 32.60625L269.0594 32.325Q269.2 33.371876 269.8719 33.934376Q270.54376 34.48125 271.7469 34.48125Q272.95 34.48125 273.52814 33.996876Q274.1219 33.496876 274.1219 32.840626Q274.1219 32.246876 273.60626 31.903126Q273.2469 31.66875 271.8094 31.309376Q269.8719 30.809376 269.1219 30.465626Q268.3875 30.10625 267.9969 29.48125Q267.60626 28.840626 267.60626 28.075Q267.60626 27.3875 267.91876 26.79375Q268.2469 26.2 268.79376 25.809376Q269.2 25.5125 269.90314 25.309376Q270.6219 25.090626 271.4344 25.090626Q272.65314 25.090626 273.575 25.45Q274.4969 25.79375 274.9344 26.403126Q275.3719 26.996876 275.54376 27.996876L273.825 28.23125Q273.7 27.434376 273.1375 26.996876Q272.575 26.54375 271.5594 26.54375Q270.34064 26.54375 269.825 26.95Q269.3094 27.340626 269.3094 27.871876Q269.3094 28.215626 269.52814 28.496876Q269.73126 28.778126 270.2 28.965626Q270.46564 29.059376 271.7469 29.403126Q273.6219 29.903126 274.35626 30.23125Q275.09064 30.54375 275.5125 31.153126Q275.9344 31.746876 275.9344 32.653126Q275.9344 33.528126 275.41876 34.309376Q274.90314 35.090626 273.9344 35.5125Q272.96564 35.934376 271.7469 35.934376Q269.73126 35.934376 268.66876 35.090626Q267.60626 34.246876 267.3094 32.60625ZM277.3094 32.60625L279.0594 32.325Q279.2 33.371876 279.8719 33.934376Q280.54376 34.48125 281.7469 34.48125Q282.95 34.48125 283.52814 33.996876Q284.1219 33.496876 284.1219 32.840626Q284.1219 32.246876 283.60626 31.903126Q283.2469 31.66875 281.8094 31.309376Q279.8719 30.809376 279.1219 30.465626Q278.3875 30.10625 277.9969 29.48125Q277.60626 28.840626 277.60626 28.075Q277.60626 27.3875 277.91876 26.79375Q278.2469 26.2 278.79376 25.809376Q279.2 25.5125 279.90314 25.309376Q280.6219 25.090626 281.4344 25.090626Q282.65314 25.090626 283.575 25.45Q284.4969 25.79375 284.9344 26.403126Q285.3719 26.996876 285.54376 27.996876L283.825 28.23125Q283.7 27.434376 283.1375 26.996876Q282.575 26.54375 281.5594 26.54375Q280.34064 26.54375 279.825 26.95Q279.3094 27.340626 279.3094 27.871876Q279.3094 28.215626 279.52814 28.496876Q279.73126 28.778126 280.2 28.965626Q280.46564 29.059376 281.7469 29.403126Q283.6219 29.903126 284.35626 30.23125Q285.09064 30.54375 285.5125 31.153126Q285.9344 31.746876 285.9344 32.653126Q285.9344 33.528126 285.41876 34.309376Q284.90314 35.090626 283.9344 35.5125Q282.96564 35.934376 281.7469 35.934376Q279.73126 35.934376 278.66876 35.090626Q277.60626 34.246876 277.3094 32.60625ZM294.02814 23.403126L294.02814 21.3875L295.79376 21.3875L295.79376 23.403126L294.02814 23.403126ZM294.02814 35.7L294.02814 25.325L295.79376 25.325L295.79376 35.7L294.02814 35.7ZM297.3094 32.60625L299.0594 32.325Q299.2 33.371876 299.8719 33.934376Q300.54376 34.48125 301.7469 34.48125Q302.95 34.48125 303.52814 33.996876Q304.1219 33.496876 304.1219 32.840626Q304.1219 32.246876 303.60626 31.903126Q303.2469 31.66875 301.8094 31.309376Q299.8719 30.809376 299.1219 30.465626Q298.3875 30.10625 297.9969 29.48125Q297.60626 28.840626 297.60626 28.075Q297.60626 27.3875 297.91876 26.79375Q298.2469 26.2 298.79376 25.809376Q299.2 25.5125 299.90314 25.309376Q300.6219 25.090626 301.4344 25.090626Q302.65314 25.090626 303.575 25.45Q304.4969 25.79375 304.9344 26.403126Q305.3719 26.996876 305.54376 27.996876L303.825 28.23125Q303.7 27.434376 303.1375 26.996876Q302.575 26.54375 301.5594 26.54375Q300.34064 26.54375 299.825 26.95Q299.3094 27.340626 299.3094 27.871876Q299.3094 28.215626 299.52814 28.496876Q299.73126 28.778126 300.2 28.965626Q300.46564 29.059376 301.7469 29.403126Q303.6219 29.903126 304.35626 30.23125Q305.09064 30.54375 305.5125 31.153126Q305.9344 31.746876 305.9344 32.653126Q305.9344 33.528126 305.41876 34.309376Q304.90314 35.090626 303.9344 35.5125Q302.96564 35.934376 301.7469 35.934376Q299.73126 35.934376 298.66876 35.090626Q297.60626 34.246876 297.3094 32.60625ZM315.6375 35.7L314.0125 35.7L314.0125 21.3875L315.7625 21.3875L315.7625 26.496876Q316.8875 25.090626 318.60626 25.090626Q319.5594 25.090626 320.41876 25.48125Q321.27814 25.871876 321.825 26.575Q322.3719 27.2625 322.6844 28.246876Q322.9969 29.23125 322.9969 30.35625Q322.9969 33.028126 321.6844 34.48125Q320.3719 35.934376 318.52814 35.934376Q316.6844 35.934376 315.6375 34.403126L315.6375 35.7ZM315.6219 30.434376Q315.6219 32.29375 316.1219 33.1375Q316.96564 34.48125 318.3719 34.48125Q319.52814 34.48125 320.35626 33.48125Q321.2 32.48125 321.2 30.496876Q321.2 28.465626 320.3875 27.5125Q319.59064 26.54375 318.45 26.54375Q317.29376 26.54375 316.45 27.54375Q315.6219 28.54375 315.6219 30.434376ZM332.1219 32.35625L333.9344 32.590626Q333.5125 34.16875 332.34064 35.059376Q331.1844 35.934376 329.3719 35.934376Q327.10626 35.934376 325.7625 34.54375Q324.4344 33.1375 324.4344 30.60625Q324.4344 27.98125 325.77814 26.54375Q327.1219 25.090626 329.27814 25.090626Q331.35626 25.090626 332.66876 26.5125Q333.9969 27.91875 333.9969 30.496876Q333.9969 30.653126 333.98126 30.965626L326.2469 30.965626Q326.34064 32.66875 327.21564 33.575Q328.09064 34.48125 329.3875 34.48125Q330.35626 34.48125 331.02814 33.98125Q331.71564 33.465626 332.1219 32.35625ZM326.34064 29.5125L332.1375 29.5125Q332.02814 28.215626 331.48126 27.559376Q330.6375 26.54375 329.29376 26.54375Q328.09064 26.54375 327.2625 27.35625Q326.4344 28.153126 326.34064 29.5125ZM339.85626 34.121876L340.10626 35.684376Q339.3719 35.840626 338.77814 35.840626Q337.825 35.840626 337.29376 35.54375Q336.77814 35.23125 336.5594 34.746876Q336.34064 34.246876 336.34064 32.66875L336.34064 26.7L335.0594 26.7L335.0594 25.325L336.34064 25.325L336.34064 22.7625L338.09064 21.7L338.09064 25.325L339.85626 25.325L339.85626 26.7L338.09064 26.7L338.09064 32.7625Q338.09064 33.5125 338.1844 33.73125Q338.27814 33.934376 338.48126 34.075Q338.7 34.2 339.09064 34.2Q339.3719 34.2 339.85626 34.121876ZM345.85626 34.121876L346.10626 35.684376Q345.3719 35.840626 344.77814 35.840626Q343.825 35.840626 343.29376 35.54375Q342.77814 35.23125 342.5594 34.746876Q342.34064 34.246876 342.34064 32.66875L342.34064 26.7L341.0594 26.7L341.0594 25.325L342.34064 25.325L342.34064 22.7625L344.09064 21.7L344.09064 25.325L345.85626 25.325L345.85626 26.7L344.09064 26.7L344.09064 32.7625Q344.09064 33.5125 344.1844 33.73125Q344.27814 33.934376 344.48126 34.075Q344.7 34.2 345.09064 34.2Q345.3719 34.2 345.85626 34.121876ZM355.1219 32.35625L356.9344 32.590626Q356.5125 34.16875 355.34064 35.059376Q354.1844 35.934376 352.3719 35.934376Q350.10626 35.934376 348.7625 34.54375Q347.4344 33.1375 347.4344 30.60625Q347.4344 27.98125 348.77814 26.54375Q350.1219 25.090626 352.27814 25.090626Q354.35626 25.090626 355.66876 26.5125Q356.9969 27.91875 356.9969 30.496876Q356.9969 30.653126 356.98126 30.965626L349.2469 30.965626Q349.34064 32.66875 350.21564 33.575Q351.09064 34.48125 352.3875 34.48125Q353.35626 34.48125 354.02814 33.98125Q354.71564 33.465626 355.1219 32.35625ZM349.34064 29.5125L355.1375 29.5125Q355.02814 28.215626 354.48126 27.559376Q353.6375 26.54375 352.29376 26.54375Q351.09064 26.54375 350.2625 27.35625Q349.4344 28.153126 349.34064 29.5125ZM358.9969 35.7L358.9969 25.325L360.575 25.325L360.575 26.903126Q361.1844 25.79375 361.7 25.45Q362.21564 25.090626 362.825 25.090626Q363.71564 25.090626 364.6375 25.653126L364.02814 27.29375Q363.3875 26.903126 362.7469 26.903126Q362.16876 26.903126 361.7 27.2625Q361.2469 27.60625 361.04376 28.215626Q360.7625 29.153126 360.7625 30.2625L360.7625 35.7L358.9969 35.7ZM367.16876 39.903126L365.91876 39.903126Q368.825 35.215626 368.825 30.528126Q368.825 28.684376 368.41876 26.8875Q368.075 25.41875 367.48126 24.075Q367.10626 23.184376 365.91876 21.1375L367.16876 21.1375Q369.0125 23.590626 369.8875 26.059376Q370.6375 28.184376 370.6375 30.5125Q370.6375 33.153126 369.6219 35.621876Q368.6219 38.075 367.16876 39.903126Z" fill-rule="nonzero"/></svg>